<?xml version="1.0" standalone="no"?>
<!DOCTYPE svg PUBLIC "-//W3C//DTD SVG 1.1//EN" "http://www.w3.org/Graphics/SVG/1.1/DTD/svg11.dtd" >
<svg xmlns="http://www.w3.org/2000/svg">
<metadata>
<json>
<![CDATA[
{
	"fontFamily": "formit-icon",
	"majorVersion": 1,
	"minorVersion": 0,
	"fontURL": "https://xirosoft.com",
	"designer": "Sofiqul Islam",
	"designerURL": "https://sofiqul.dev",
	"license": "GPL 2",
	"copyright": "Formit",
	"description": "Formit - Simple WordPress Form Builder.",
	"version": "Version 1.0",
	"fontId": "formit-icon",
	"psName": "formit-icon",
	"subFamily": "Regular",
	"fullName": "formit-icon"
}
]]>
</json>
</metadata>
<defs>
<font id="formit-icon" horiz-adv-x="1024">
<font-face units-per-em="1024" ascent="960" descent="-64" />
<missing-glyph horiz-adv-x="1024" />
<glyph unicode="&#x20;" horiz-adv-x="512" d="" />
<glyph unicode="&#xe900;" glyph-name="hash" data-tags="hash" d="M389.775 854.446c-8.020-4.309-14.155-11.253-17.324-19.652l-0.084-0.255c-1.475-3.85-31.048-176.128-31.048-180.838 0-0.492-41.697-0.901-92.692-0.901-103.137 0-104.899-0.164-115.22-10.813-14.008-14.418-13.844-46.899 0.287-60.58 10.609-10.281 13.025-10.527 108.093-10.527h85.975l-0.901-3.85c-0.942-4.055-40.141-239.452-40.141-241.009 0-0.492-38.666-0.901-85.934-0.901-95.027 0-97.444-0.246-108.052-10.527-14.254-13.804-14.254-47.063 0-60.867 10.486-10.199 13.681-10.527 101.294-10.527h79.094l-0.86-3.85c-3.236-13.967-26.501-159.539-26.46-165.478 0.082-20.275 14.705-32.973 40.182-34.98 19.046-1.475 31.662 5.98 37.97 22.528 1.475 3.891 31.048 176.169 31.048 180.879 0 0.492 55.296 0.901 122.88 0.901h122.921l-0.86-3.85c-3.236-13.967-26.501-159.539-26.46-165.478 0.082-20.275 14.705-32.973 40.182-34.98 19.046-1.475 31.662 5.98 37.97 22.528 1.475 3.891 31.048 176.169 31.048 180.879 0 0.492 32.481 0.901 72.212 0.901 80.691 0 84.705 0.451 94.74 10.813 14.008 14.418 13.844 46.899-0.287 60.58-10.281 9.953-14.909 10.527-87.613 10.527h-65.495l0.901 3.85c0.942 4.055 40.141 239.452 40.141 241.009 0 0.492 29.45 0.901 65.454 0.901 72.663 0 77.292 0.573 87.572 10.527 14.254 13.804 14.254 47.063 0 60.867-10.117 9.83-15.524 10.527-80.814 10.527h-58.614l0.86 3.85c3.236 13.967 26.501 159.539 26.46 165.478-0.082 20.275-14.705 32.973-40.182 34.98-19.046 1.475-31.662-5.98-37.97-22.569-1.475-3.85-31.048-176.128-31.048-180.838 0-0.492-55.296-0.901-122.88-0.901h-122.921l0.86 3.85c3.236 13.967 26.501 159.539 26.46 165.478-0.082 20.603-14.95 33.26-40.919 34.857-10.281 0.614-14.172 0.123-19.825-2.54zM654.541 567.030c-0.942-4.055-40.141-239.452-40.141-241.009 0-0.492-55.296-0.901-122.921-0.901h-122.921l0.901 3.85c0.942 4.055 40.141 239.452 40.141 241.009 0 0.492 55.296 0.901 122.921 0.901h122.921l-0.901-3.85z" />
<glyph unicode="&#xe901;" glyph-name="heading" data-tags="heading" d="M261.857 855.88c-48.947-3.441-78.889-15.606-108.872-44.237-27.484-26.296-41.288-54.477-47.555-97.116-3.154-21.504-3.154-511.549 0-533.053 5.939-40.223 17.285-65.004 41.697-91.136 26.255-28.058 55.46-42.598 98.345-48.906 21.504-3.154 511.549-3.154 533.053 0 40.632 5.98 67.011 18.309 93.266 43.663 26.501 25.559 40.632 54.682 46.776 96.379 3.154 21.504 3.154 511.549 0 533.053-6.308 42.885-20.849 72.090-48.906 98.345-25.231 23.593-48.579 34.611-88.023 41.533-13.025 2.294-488.776 3.645-519.782 1.475zM780.001 772.076c20.644-5.693 40.673-21.791 50.012-40.182 8.97-17.695 8.806-13.025 8.806-283.894s0.164-266.199-8.806-283.894c-5.98-11.796-20.89-26.952-32.645-33.219-18.719-9.994-11.059-9.708-285.368-9.708s-266.65-0.287-285.368 9.708c-11.715 6.226-26.665 21.422-32.522 33.055-9.216 18.227-8.929 8.888-8.929 284.058s-0.287 265.83 8.929 284.058c5.857 11.633 20.849 26.829 32.522 33.014 9.257 4.915 21.996 8.192 37.069 9.503 48.815 0.306 106.54 0.48 164.305 0.48 32.525 0 65.038-0.055 97.538-0.165l-5.023 0.013c218.071-0.205 251.249-0.573 259.482-2.826zM331.284 691.18c-5.136-1.858-9.55-4.559-13.303-7.975l0.032 0.028c-11.305-10.936-10.813 0.041-10.813-235.274 0-234.25-0.492-223.56 10.527-234.906 13.804-14.254 47.063-14.254 60.867 0 10.281 10.609 10.527 13.025 10.527 108.052v85.934h245.76v-85.934c0-95.027 0.246-97.444 10.527-108.052 13.681-14.131 46.162-14.295 60.58-0.287 11.305 10.936 10.813 0 10.813 235.233s0.492 224.297-10.813 235.233c-14.418 14.008-46.899 13.844-60.58-0.287-10.281-10.609-10.527-13.025-10.527-108.052v-85.934h-245.76v85.893c0 95.642-0.246 98.14-10.813 108.38-10.035 9.748-30.31 13.189-47.022 7.946z" />
<glyph unicode="&#xe902;" glyph-name="info" data-tags="info" d="M472.883 896.676c-37.601-3.359-81.879-13.271-117.268-26.296-9.257-3.4-29.123-12.247-44.155-19.62-88.333-43.99-158.23-113.888-201.063-199.66l-1.157-2.559c-28.467-57.836-41.738-107.151-46.49-172.81-4.26-59.064 5.53-126.034 26.87-184.115 9.257-25.19 31.416-68.936 46.121-91.095 34.376-51.498 77.28-94.402 127.124-127.737l1.654-1.041c22.159-14.705 65.905-36.864 91.095-46.121 58.040-21.34 124.969-31.13 184.115-26.87 65.004 4.628 115.302 18.186 172.81 46.49 72.37 36.218 131.717 89.014 174.69 153.636l1.028 1.644c14.705 22.159 36.864 65.905 46.121 91.095 21.34 58.040 31.13 124.969 26.87 184.115-4.628 65.004-18.186 115.302-46.49 172.81-36.144 72.416-88.957 131.78-153.633 174.691l-1.646 1.027c-22.159 14.705-65.905 36.864-91.095 46.121-47.012 17.617-101.341 27.814-158.051 27.814-13.182 0-26.235-0.551-39.138-1.631l1.687 0.114zM549.192 814.838c189.276-20.439 331.448-177.807 331.448-366.838 0-203.284-165.356-368.64-368.64-368.64s-368.64 165.356-368.64 368.64c0 125.297 63.078 240.845 169.411 310.231 45.507 29.737 103.465 50.217 159.99 56.525 11.596 1.024 25.087 1.608 38.714 1.608 13.276 0 26.422-0.554 39.417-1.641l-1.7 0.114zM495.124 650.22c-14.95-4.628-24.084-19.21-24.084-38.42 0-19.374 9.257-33.874 24.576-38.42 22.487-6.676 44.442 0.205 53.494 16.753 4.26 7.782 4.26 35.635 0 43.418-9.011 16.466-31.949 23.552-53.985 16.671zM495.124 486.38c-5.136-1.858-9.55-4.559-13.303-7.975l0.032 0.028c-10.609-10.281-10.813-12.329-10.813-112.353 0-99.983 0.205-102.072 10.813-112.353 14.295-13.885 45.998-13.885 60.293 0 10.609 10.281 10.813 12.37 10.813 112.353s-0.205 102.072-10.813 112.353c-10.035 9.748-30.31 13.189-47.022 7.946z" />
<glyph unicode="&#xe903;" glyph-name="link" data-tags="link" d="M662.036 865.915c-42.598-3.768-90.112-22.282-124.969-48.701-16.712-12.698-86.18-82.207-91.791-91.873-8.724-15.073-5.612-30.556 9.134-45.261 14.172-14.172 29.245-17.654 44.032-10.199 4.751 2.417 22.364 18.473 46.858 42.68 25.6 25.313 43.377 41.492 51.2 46.49 60.785 38.953 139.428 34.365 193.823-11.387 36.269-30.222 59.184-75.406 59.184-125.942 0-33.196-9.888-64.083-26.878-89.877l0.381 0.615c-4.956-7.741-21.258-25.723-46.449-51.2-23.921-24.207-40.264-42.148-42.639-46.817-7.537-14.746-4.055-29.819 10.158-44.032 14.705-14.746 30.188-17.859 45.261-9.134 9.667 5.612 79.176 75.080 91.873 91.791 26.752 35.547 44.396 79.343 48.712 126.987l0.071 0.972c0.568 6.26 0.892 13.54 0.892 20.896 0 115.785-80.231 212.831-188.131 238.578l-1.669 0.336c-13.517 3.154-49.93 7.332-59.269 6.758-1.884-0.123-10.772-0.86-19.784-1.679zM640.86 630.641c-9.871-4.915-308.716-304.21-312.279-312.73-5.775-13.967-2.499-26.829 10.24-40.468 13.517-14.459 28.467-18.883 43.090-12.861 8.724 3.645 307.937 302.449 312.73 312.402 2.038 4.227 3.229 9.191 3.229 14.434 0 5.31-1.222 10.334-3.399 14.808l0.088-0.201c-4.178 8.561-18.145 22.118-26.378 25.559-3.723 1.474-8.037 2.329-12.551 2.329-5.361 0-10.441-1.206-14.982-3.362l0.212 0.091zM234.66 514.724c-10.854-6.308-80.609-76.595-93.266-94.044-28.344-38.953-43.581-79.708-47.432-126.689-0.539-6.084-0.847-13.161-0.847-20.311 0-67.519 27.425-128.633 71.742-172.809l0.006-0.006c44.128-44.328 105.197-71.758 172.672-71.758 7.185 0 14.298 0.311 21.326 0.92l-0.913-0.064c51.842 4.028 98.424 23.768 135.714 54.404l-0.423-0.337c18.514 14.991 84.173 82.084 87.572 89.457 6.185 13.476 2.048 29.164-11.223 42.435-14.213 14.213-29.286 17.695-44.032 10.158-4.669-2.376-22.61-18.719-46.817-42.639-25.477-25.19-43.459-41.492-51.2-46.449-25.137-16.602-55.981-26.486-89.133-26.486-17.537 0-34.429 2.766-50.262 7.885l1.155-0.323c-92.406 29-139.96 132.833-101.335 221.307 10.117 23.101 19.087 34.488 60.211 76.186 23.757 24.084 40.796 42.762 42.68 46.776 6.595 14.213 2.744 29.573-10.936 43.254-14.705 14.746-30.188 17.859-45.261 9.134z" />
<glyph unicode="&#xe904;" glyph-name="mail" data-tags="mail" d="M220.897 814.92c-48.906-3.4-78.889-15.606-108.872-44.237-24.856-23.392-41.749-54.998-46.328-90.463l-0.080-0.755c-0.682-5.555-1.745-10.535-3.197-15.346l0.166 0.641c-2.785-8.356-0.86-427.213 2.048-444.621 6.595-39.608 17.736-63.365 41.533-88.842 26.255-28.058 55.46-42.598 98.345-48.906 21.545-3.154 593.428-3.154 614.973 0 41.697 6.144 70.82 20.275 96.379 46.776 24.699 25.6 36.823 50.954 43.54 90.972 2.376 14.377 4.833 434.422 2.58 441.18-1.203 4.249-2.265 9.452-2.967 14.769l-0.064 0.591c-5.571 39.24-21.012 69.673-48.333 95.232-25.19 23.593-48.456 34.529-88.023 41.533-12.943 2.294-570.245 3.645-601.702 1.475zM820.961 731.116c5.202-1.434 13.435-4.792 18.35-7.455 16.876-9.175 35.471-33.096 36.618-47.104 0.451-5.407-0.942-6.431-165.11-121.446-91.054-63.775-170.721-119.030-177.029-122.798-9.994-5.98-12.78-6.84-21.791-6.84s-11.796 0.86-21.791 6.84c-6.308 3.768-85.975 59.023-177.029 122.798-164.168 115.016-165.56 116.040-165.11 121.446 1.188 14.377 20.070 38.257 37.601 47.555 9.257 4.915 22.036 8.192 37.069 9.503 3.727 0.328 137.748 0.492 297.779 0.369 255.181-0.246 292.168-0.573 300.442-2.867zM296.305 467.169c2.687-3.531 50.809-37.276 99.142-70.737l48.601-31.827c23.306-14.746 42.762-20.644 67.953-20.644s44.646 5.898 67.953 20.644c9.544 6.021 270.377 187.965 292.659 204.145l8.192 5.939-0.655-171.295c-0.492-128.082-1.229-173.67-2.785-180.675-4.628-20.521-21.586-42.148-40.509-51.773-17.859-9.011-9.871-8.806-324.854-8.806s-306.995-0.205-324.854 8.806c-11.387 5.775-26.706 20.603-32.727 31.662-10.322 18.924-9.953 12.083-10.609 199.926l-0.614 172.155 8.192-5.939c4.506-3.277 69.714-48.988 144.916-101.581z" />
<glyph unicode="&#xe905;" glyph-name="paragraph" data-tags="paragraph" d="M261.857 855.88c-48.947-3.441-78.889-15.606-108.872-44.237-27.484-26.296-41.288-54.477-47.555-97.116-3.154-21.504-3.154-511.549 0-533.053 5.939-40.223 17.285-65.004 41.697-91.136 26.255-28.058 55.46-42.598 98.345-48.906 21.504-3.154 511.549-3.154 533.053 0 40.632 5.98 67.011 18.309 93.266 43.663 26.501 25.559 40.632 54.682 46.776 96.379 3.154 21.504 3.154 511.549 0 533.053-6.308 42.885-20.849 72.090-48.906 98.345-25.231 23.593-48.579 34.611-88.023 41.533-13.025 2.294-488.776 3.645-519.782 1.475zM780.001 772.076c20.644-5.693 40.673-21.791 50.012-40.182 8.97-17.695 8.806-13.025 8.806-283.894s0.164-266.199-8.806-283.894c-5.98-11.796-20.89-26.952-32.645-33.219-18.719-9.994-11.059-9.708-285.368-9.708s-266.65-0.287-285.368 9.708c-11.715 6.226-26.665 21.422-32.522 33.055-9.216 18.227-8.929 8.888-8.929 284.058s-0.287 265.83 8.929 284.058c5.857 11.633 20.849 26.829 32.522 33.014 9.257 4.915 21.996 8.192 37.069 9.503 48.815 0.306 106.54 0.48 164.305 0.48 32.525 0 65.038-0.055 97.538-0.165l-5.023 0.013c218.071-0.205 251.249-0.573 259.482-2.826zM331.284 691.18c-5.136-1.858-9.55-4.559-13.303-7.975l0.032 0.028c-14.131-13.681-14.295-46.121-0.287-60.58 9.912-10.24 14.664-10.813 87.9-10.813h65.413v-188.293c0-208.282-0.41-199.885 10.813-210.78 14.295-13.885 45.998-13.885 60.293 0 11.223 10.895 10.813 2.499 10.813 210.78v188.293h65.454c72.663 0 77.292 0.573 87.572 10.527 14.254 13.804 14.254 47.063 0 60.867-11.223 10.895-4.588 10.527-194.683 10.404-140.902-0.082-173.916-0.532-180.019-2.458z" />
<glyph unicode="&#xe906;" glyph-name="phone" data-tags="phone" d="M272.056 874.476c-24.289-2.253-43.377-10.24-64.061-26.788-19.292-15.401-71.148-69.304-80.65-83.804-26.419-40.264-33.382-86.385-20.644-136.806 6.84-27.116 26.378-84.746 38.42-113.377 31.621-75.080 80.691-154.051 133.079-214.18 78.356-89.989 174.899-163.226 277.955-210.862 55.869-25.846 134.39-51.569 169.001-55.378 37.151-4.055 75.776 5.816 108.544 27.812 12.042 8.069 74.629 69.345 85.361 83.558 16.015 21.217 23.552 44.646 23.429 72.95-0.164 43.991-13.394 66.888-69.878 121.16-33.71 32.399-51.937 42.476-84.419 46.572-41.001 5.202-76.595-9.257-112.271-45.548l-9.298-9.462-18.842 9.912c-103.26 54.231-183.501 134.062-238.797 237.65-5.284 9.912-9.626 19.005-9.626 20.234 0 1.188 6.881 9.38 15.278 18.145 17.449 18.268 27.525 34.079 33.833 53.125 3.768 11.387 4.424 16.425 4.506 35.471 0.287 45.998-11.305 66.888-66.929 120.627-31.785 30.72-47.227 40.509-72.868 46.326-8.423 2.154-18.094 3.39-28.053 3.39-4.605 0-9.149-0.264-13.616-0.779l0.545 0.051zM297.861 791.613c6.881-2.335 13.312-7.741 37.724-31.703 32.44-31.867 36.454-37.724 36.454-53.371 0-13.844-3.195-19.62-21.709-39.199-25.969-27.443-32.891-42.066-32.891-69.55 0-16.835 3.645-28.017 17.9-55.255 60.277-114.312 150.185-205.996 259.625-266.772l3.297-1.68c35.717-19.497 44.851-22.856 64.266-23.716 29.532-1.311 44.564 5.53 73.687 33.505 18.391 17.613 24.289 20.767 38.83 20.767 14.008-0.041 22.323-5.816 52.265-36.332 31.048-31.621 35.389-38.42 34.161-53.289-0.548-5.547-1.897-10.64-3.937-15.364l0.128 0.332c-3.441-7.168-59.269-63.98-70.533-71.762-9.585-6.595-27.853-13.025-40.387-14.172-12.206-1.106-28.713 2.458-65.782 14.131-123.74 39.076-225.198 102.851-317.44 199.557-79.176 83.026-136.52 182.067-170.312 294.339-12.042 39.936-13.435 48.988-9.994 65.741 4.833 23.716 8.356 28.795 46.203 66.765 28.017 28.099 35.676 34.857 41.943 36.987 3.934 1.645 8.506 2.601 13.301 2.601 4.757 0 9.293-0.941 13.435-2.646l-0.235 0.086z" />
<glyph unicode="&#xe907;" glyph-name="radio" data-tags="radio" d="M295.322 805.417c-3.523-1.516-25.559-22.118-53.78-50.176l-47.841-47.555-20.89 20.275c-22.282 21.627-28.672 25.313-40.182 23.142-6.717-1.27-20.48-12.534-24.33-19.907-1.612-3.276-2.555-7.13-2.555-11.205 0-5.755 1.881-11.071 5.062-15.366l-0.049 0.070c2.703-3.686 19.415-21.012 37.11-38.502 26.214-25.928 33.505-32.236 39.404-33.956 13.967-4.137 15.483-2.949 85.279 67.052 55.173 55.337 63.529 64.43 64.553 70.001 1.843 9.912-0.369 17.285-7.7 25.6-11.1 12.575-21.75 15.852-34.079 10.527zM420.045 757.78c-15.933-4.997-22.815-16.507-22.938-38.42-0.123-19.743 4.588-29 18.473-36.454l6.84-3.645h477.921l8.438 4.342c6.758 3.441 9.421 6.226 13.353 13.64 4.424 8.52 4.833 10.568 4.301 23.839-0.86 21.914-8.151 32.809-25.108 37.519-4.014 1.106-88.269 1.679-239.985 1.597-192.471-0.082-235.151-0.532-241.295-2.417zM189.972 560.64c-38.257-8.069-72.868-42.394-80.609-79.872-1.134-7.030-1.781-15.133-1.781-23.388s0.648-16.359 1.895-24.263l-0.114 0.875c7.864-38.175 44.278-73.482 82.534-79.995 16.138-2.744 41.615-1.065 55.337 3.645 12.984 4.506 33.219 17.654 41.984 27.361 10.281 11.387 19.538 27.034 23.593 39.895 5.366 17.121 5.366 47.882 0 65.004-5.512 15.422-13.534 28.692-23.691 40.006l0.098-0.111c-9.134 10.076-29.819 23.347-43.090 27.607-12.82 4.096-43.745 5.898-56.156 3.236zM230.4 497.357c9.698-4.109 17.295-11.6 21.443-20.959l0.102-0.258c2.54-5.521 4.022-11.979 4.022-18.784 0-11.727-4.4-22.426-11.639-30.536l0.040 0.045c-10.363-11.059-30.106-15.852-46.612-11.264-8.315 2.294-20.849 13.64-25.354 22.938-4.342 9.011-4.956 26.419-1.188 35.43 5.549 11.796 15.295 20.85 27.269 25.365l0.338 0.112c7.537 2.458 23.88 1.393 31.58-2.089zM418.98 495.227c-15.729-6.144-22.118-17.080-22.118-37.847 0-21.135 6.922-32.768 22.815-38.134 8.069-2.744 474.112-2.785 483.983-0.082 8.684 2.417 18.76 12.493 21.176 21.176 1.152 5.121 1.812 11.003 1.812 17.039s-0.66 11.918-1.912 17.577l0.1-0.538c-2.417 8.684-12.493 18.76-21.176 21.176-9.994 2.744-477.553 2.417-484.68-0.369zM197.14 299.479c-23.675-3.236-40.755-12.206-59.761-31.375-21.012-21.258-29.778-42.639-29.819-72.827-0.041-26.337 7.455-47.636 23.593-67.052 43.172-51.855 120.545-51.118 163.717 1.597 24.904 30.392 29.819 74.465 12.37 110.838-9.1 17.732-22.001 32.351-37.705 43.205l-0.388 0.254c-19.128 12.534-47.882 18.678-72.008 15.36zM231.383 235.008c8.643-4.465 18.637-14.868 21.955-22.897 3.686-8.806 3.359-26.092-0.655-34.898-4.424-9.748-15.688-20.234-25.19-23.47-4.478-1.701-9.656-2.686-15.064-2.686-17.212 0-32.094 9.978-39.176 24.465l-0.114 0.258c-12.247 25.068 0.573 53.453 28.221 62.505 6.799 2.253 22.692 0.492 30.024-3.277zM422.666 233.943c-17.572-4.751-25.805-17.039-25.805-38.543 0-14.172 2.54-22.282 9.175-29.573 10.363-11.346-9.953-10.486 251.576-10.977 156.385-0.287 239.124 0.123 243.384 1.27 17.203 4.628 24.576 15.524 25.436 37.601 0.532 13.23 0.123 15.319-4.301 23.798-3.932 7.455-6.595 10.199-13.353 13.64l-8.438 4.342-234.701 0.369c-188.908 0.246-236.298-0.123-242.975-1.925z" />
<glyph unicode="&#xe908;" glyph-name="select" data-tags="select" d="M102.81 710.39l0.451-145.49 261.939-0.86 0.901-524.78h554.639l0.451 350.29 0.41 350.29h-117.76v116.040h-701.44l0.41-145.49zM745.8 768.84v-29h-380.559v-116.040h-203.121v174.080h583.68v-29.041zM861.88 389.96v-291.84h-436.92v583.68h436.92v-291.84zM483 564.040v-29h57.999v58.040h-57.999v-29.041zM599.409 564.49l0.492-28.59 203.94-0.901v58.081h-204.882l0.451-28.59zM483 389.96v-29h57.999v58.040h-57.999v-29.041zM599.040 389.96v-29h204.8v58.040h-204.8v-29.041zM483 214.2v-29.041h57.999v58.040h-57.999v-29zM599.040 214.2v-29.041h204.8v58.040h-204.8v-29z" />
<glyph unicode="&#xe909;" glyph-name="settings" data-tags="settings" d="M417.423 809.759c-63.734-10.076-111.862-49.807-134.185-110.879l-4.71-12.82-70.574-0.819c-81.060-0.983-79.708-0.737-89.334-16.261-4.71-7.578-5.12-9.462-5.12-23.88 0-14.377 0.41-16.261 5.12-23.839 9.626-15.524 8.274-15.278 89.334-16.261l70.574-0.86 4.792-13.025c13.926-38.216 38.543-68.444 72.54-89.047 25.19-15.278 51.732-22.282 84.46-22.282 41.902 0 73.318 11.182 106.332 37.888 23.511 19.005 45.466 53.207 54.436 84.787 3.359 11.756 3.891 17.654 3.891 42.639 0 34.284-2.54 45.752-16.179 73.4-17.431 34.854-45.559 62.188-80.023 78.171l-1.037 0.431c-24.822 11.018-64.963 16.63-90.317 12.657zM461.578 726.979c36.37-9.578 62.756-42.171 62.756-80.928 0-0.335-0.002-0.669-0.006-1.002v0.051c0-83.558-107.356-115.958-154.46-46.572-18.391 27.075-18.391 66.109 0 93.184 15.475 22.971 41.388 37.88 70.784 37.88 7.434 0 14.645-0.953 21.517-2.745l-0.592 0.131zM637.46 682.988c-9.626-3.809-12.698-6.349-17.449-14.418-4.26-7.25-4.751-9.708-4.751-23.593 0-14.254 0.41-16.138 5.12-23.716 2.966-4.921 7.002-8.917 11.804-11.752l0.157-0.085c6.717-3.523 8.315-3.564 130.54-3.564s123.822 0.041 130.58 3.564c4.936 2.934 8.955 6.927 11.834 11.686l0.085 0.151c4.71 7.578 5.12 9.462 5.12 23.839 0 14.418-0.41 16.302-5.12 23.88-2.964 4.911-6.983 8.904-11.764 11.752l-0.155 0.086c-6.758 3.523-8.724 3.564-128.86 3.891-90.644 0.205-123.372-0.246-127.14-1.72zM560.783 415.519c-67.338-10.609-118.948-56.32-137.83-121.979-3.4-11.837-3.932-17.49-3.932-42.68 0-34.12 2.499-45.466 16.138-73.359 21.914-44.892 60.826-75.94 110.674-88.269 20.849-5.202 54.845-5.202 75.694 0 56.402 13.967 97.853 51.118 118.579 106.168l5.448 14.5 70.533 0.86c81.019 0.983 79.667 0.737 89.293 16.261 4.71 7.578 5.12 9.462 5.12 23.839 0 14.418-0.41 16.302-5.12 23.88-9.626 15.524-8.274 15.278-89.293 16.261l-70.533 0.819-5.448 14.541c-16.589 44.073-48.251 78.397-89.006 96.502-24.822 11.018-64.963 16.63-90.317 12.657zM604.938 332.739c36.37-9.578 62.756-42.171 62.756-80.928 0-0.335-0.002-0.669-0.006-1.002v0.051c0-83.558-107.356-115.958-154.46-46.572-18.391 27.075-18.391 66.109 0 93.184 15.475 22.971 41.388 37.88 70.784 37.88 7.434 0 14.645-0.953 21.517-2.745l-0.592 0.131zM135.7 288.748c-9.626-3.809-12.698-6.349-17.449-14.418-4.26-7.25-4.751-9.708-4.751-23.593 0-14.254 0.41-16.138 5.12-23.716 2.966-4.921 7.002-8.917 11.804-11.752l0.157-0.085c6.717-3.523 8.315-3.564 130.54-3.564s123.822 0.041 130.58 3.564c4.936 2.934 8.955 6.927 11.834 11.686l0.085 0.151c4.71 7.578 5.12 9.462 5.12 23.839 0 14.418-0.41 16.302-5.12 23.88-2.964 4.911-6.983 8.904-11.764 11.752l-0.155 0.086c-6.758 3.523-8.724 3.564-128.86 3.891-90.644 0.205-123.372-0.246-127.14-1.72z" />
<glyph unicode="&#xe90a;" glyph-name="textarea" data-tags="textarea" d="M126.484 732.14c-14.95-4.628-24.084-19.21-24.084-38.42 0-19.374 9.257-33.874 24.576-38.42 12.78-3.768 716.308-3.768 729.088 0 15.319 4.547 24.576 19.046 24.576 38.461s-9.257 33.915-24.576 38.461c-12.247 3.604-717.906 3.564-729.58-0.082zM126.484 568.3c-14.95-4.628-24.084-19.21-24.084-38.42 0-19.374 9.257-33.874 24.576-38.42 12.616-3.727 552.591-3.768 565.043-0.041 15.606 4.71 24.781 18.964 24.781 38.502s-9.175 33.792-24.781 38.502c-11.919 3.564-554.025 3.482-565.535-0.123zM126.484 404.46c-14.95-4.628-24.084-19.21-24.084-38.42 0-19.374 9.257-33.874 24.576-38.42 12.78-3.768 716.308-3.768 729.088 0 15.319 4.547 24.576 19.046 24.576 38.461s-9.257 33.915-24.576 38.461c-12.247 3.604-717.906 3.564-729.58-0.082zM126.484 240.62c-14.95-4.628-24.084-19.21-24.084-38.42 0-19.374 9.257-33.874 24.576-38.42 12.616-3.727 552.591-3.768 565.043-0.041 15.606 4.71 24.781 18.964 24.781 38.502s-9.175 33.792-24.781 38.502c-11.919 3.564-554.025 3.482-565.535-0.123z" />
<glyph unicode="&#xe90b;" glyph-name="text-input" data-tags="text-input" d="M597.524 855.020c-5.136-1.858-9.55-4.559-13.303-7.975l0.032 0.028c-14.131-13.681-14.295-46.121-0.287-60.58 8.929-9.216 17.326-10.813 57.18-10.813h34.693v-655.36h-34.734c-39.322 0-47.596-1.516-56.852-10.527-14.254-13.804-14.254-47.063 0-60.867 10.854-10.527 10.691-10.527 132.547-10.527s121.692 0 132.547 10.527c14.254 13.804 14.254 47.063 0 60.867-9.257 9.011-17.531 10.527-56.852 10.527h-34.734v81.469l48.21 0.983c61.358 1.27 76.104 4.096 99.779 19.251 27.946 18.022 47.686 46.713 53.514 80.181l0.103 0.715c3.4 18.678 3.4 271.483 0 290.161-5.931 34.183-25.671 62.874-53.146 80.612l-0.471 0.284c-23.675 15.155-38.42 17.981-99.779 19.251l-48.21 0.983v81.469h34.693c39.854 0 48.251 1.597 57.18 10.813 9.789 10.076 13.148 29.45 8.069 46.326-3.201 10.718-11.433 19.004-21.885 22.221l-0.233 0.062c-12.042 3.564-226.55 3.523-238.060-0.082zM181.78 692.654c-28.59-2.335-47.514-8.11-65.577-20.152-27.648-18.35-45.425-45.752-51.569-79.421-3.4-18.678-3.4-271.483 0-290.161 7.537-41.329 35.103-75.899 72.212-90.563 23.101-9.175 18.022-8.929 226.673-9.667 143.77-0.532 196.076-0.205 202.834 1.27 11.996 2.38 21.487 11.106 24.926 22.462l0.060 0.23c7.004 23.47-0.983 46.653-18.76 54.436-4.096 1.761-44.851 2.376-202.22 3.072-176.046 0.778-197.755 1.147-203.121 3.604-8.602 3.932-19.988 16.998-21.627 24.822-1.843 8.561-1.843 262.267 0 270.828 1.638 7.823 13.025 20.89 21.627 24.822 5.366 2.458 27.075 2.826 203.121 3.604 214.18 0.942 202.138 0.328 212.951 10.732 14.090 13.558 13.967 46.94-0.205 60.662-11.305 10.936-3.154 10.568-208.323 10.24-102.4-0.164-189.276-0.532-193.004-0.819zM856.76 608.195c8.561-3.85 19.988-16.916 21.627-24.781 1.843-8.561 1.843-262.267 0-270.828-1.638-7.864-13.066-20.931-21.627-24.781-4.833-2.13-15.073-2.785-52.511-3.318l-46.49-0.655v328.335l46.49-0.655c37.437-0.532 47.677-1.188 52.511-3.318z" />
<glyph unicode="&#xe90c;" glyph-name="trash" data-tags="trash" d="M427.54 897.495c-39.363-3.604-64.348-14.377-85.729-36.987-24.289-25.682-32.072-48.333-34.079-98.918l-1.065-26.87h-85.647c-94.74 0-97.198-0.246-107.807-10.527-14.254-13.804-14.254-47.063 0-60.867 8.602-8.356 18.268-10.527 46.531-10.527h24.412l0.696-252.15c0.737-261.816 0.655-259.031 8.11-287.908 12.698-49.275 57.057-93.716 106.537-106.66 29.041-7.619 34.079-7.782 212.5-7.782s183.46 0.164 212.5 7.782c49.439 12.943 93.88 57.508 106.578 106.865 7.373 28.631 7.332 26.173 8.069 287.703l0.696 252.15h24.412c28.262 0 37.929 2.171 46.531 10.527 14.254 13.804 14.254 47.063 0 60.867-10.609 10.281-13.066 10.527-107.807 10.527h-85.647l-1.065 26.87c-1.679 42.148-6.308 60.58-20.849 82.412-12.82 19.292-33.546 36.372-54.026 44.442-20.89 8.274-27.566 8.765-120.013 9.257-11.601 0.134-25.306 0.211-39.029 0.211-19.272 0-38.509-0.151-57.709-0.451l2.899 0.036zM610.14 813.527c7.168-3.072 17.818-13.681 20.931-20.767 1.802-4.137 2.867-13.967 3.441-32.031l0.819-26.010h-246.661l0.819 26.010c0.573 17.695 1.638 27.976 3.4 32.031 3.768 8.806 16.753 20.029 24.658 21.34 3.604 0.573 7.7 1.311 9.134 1.638 16.857 0.283 36.746 0.445 56.673 0.445 11.872 0 23.731-0.057 35.577-0.172l-1.81 0.014c67.584-0.205 89.088-0.819 93.020-2.499zM757.268 401.51c-0.655-268.575-0.41-261.038-9.216-278.446-5.939-11.715-20.89-26.87-32.604-33.137-18.227-9.708-18.145-9.708-203.448-9.708-182.723 0-184.73 0.082-201.974 8.806-11.387 5.775-26.706 20.603-32.727 31.662-10.568 19.456-9.994 4.014-10.609 279.962l-0.573 252.15h491.766l-0.614-251.29zM413.204 506.86c-5.136-1.858-9.55-4.559-13.303-7.975l0.032 0.028c-10.813-10.486-10.813-10.322-10.813-132.833 0-122.47 0-122.348 10.813-132.833 14.295-13.885 45.998-13.885 60.293 0 10.813 10.486 10.813 10.363 10.813 132.833s0 122.348-10.813 132.833c-10.035 9.748-30.31 13.189-47.022 7.946zM577.044 506.86c-5.136-1.858-9.55-4.559-13.303-7.975l0.032 0.028c-10.813-10.486-10.813-10.322-10.813-132.833 0-122.47 0-122.348 10.813-132.833 14.295-13.885 45.998-13.885 60.293 0 10.813 10.486 10.813 10.363 10.813 132.833s0 122.348-10.813 132.833c-10.035 9.748-30.31 13.189-47.022 7.946z" />
<glyph unicode="&#xe90d;" glyph-name="view" data-tags="view" d="M476.16 773.96c-107.233-11.182-201.318-59.72-292.782-150.979-41.042-40.96-91.177-107.028-108.093-142.459-5.98-12.493-6.144-13.476-6.144-32.522 0-19.087 0.164-19.988 6.267-32.768 3.441-7.209 14.090-24.74 23.634-38.871 85.606-127.017 201.687-216.105 318.259-244.163 35.185-8.479 56.156-10.895 94.7-10.895s59.515 2.417 94.74 10.895c118.292 28.508 235.725 119.521 322.028 249.528 7.537 11.387 16.507 26.542 19.907 33.669 6.021 12.575 6.226 13.558 6.226 32.604s-0.205 20.029-6.226 32.604c-16.916 35.471-66.601 100.925-108.052 142.418-84.705 84.787-174.572 133.775-272.302 148.357-21.668 3.236-72.212 4.669-92.16 2.58zM561.48 689.787c61.112-10.445 118.784-37.765 175.8-83.19 21.791-17.367 64.184-59.515 82.78-82.33 15.196-18.637 39.854-52.675 48.538-66.929l5.652-9.339-5.652-9.339c-20.439-33.669-53.903-75.366-87.777-109.322-70.492-70.615-143.196-110.92-223.601-123.945-7.619-1.229-27.566-2.212-45.22-2.212-53.494 0-93.102 9.257-142.5 33.3-44.974 21.873-84.378 50.831-126.28 92.856-33.915 33.956-67.379 75.653-87.818 109.322l-5.652 9.339 5.652 9.339c8.684 14.254 33.341 48.292 48.538 66.929 18.596 22.815 60.989 64.963 82.78 82.33 58.286 46.449 121.61 75.858 180.060 83.64l18.76 2.54c10.24 1.434 61.809-0.573 75.94-2.99zM489.513 610.12c-43.704-6.963-82.043-29.45-107.643-63.119-12.419-17.336-22.301-37.514-28.536-59.235l-0.341-1.386c-5.325-21.586-5.325-55.173 0-76.554 9.641-37.562 30.891-69.189 59.637-91.677l0.37-0.279c15.114-11.469 42.025-24.289 60.621-28.877 21.627-5.325 55.132-5.325 76.8 0 23.091 6.585 43.255 16.465 61.175 29.281l-0.595-0.405c29.115 22.767 50.366 54.393 59.751 90.787l0.256 1.168c5.325 21.381 5.325 54.968 0 76.554-6.575 23.107-16.457 43.285-29.281 61.215l0.404-0.594c-22.553 28.893-53.854 50.021-89.887 59.46l-1.167 0.26c-16.384 3.973-47.227 5.693-61.563 3.4zM533.381 527.258c26.296-6.84 51.118-31.662 57.917-57.876 1.794-6.329 2.825-13.599 2.825-21.109 0-23.286-9.914-44.256-25.751-58.92l-0.053-0.048c-16.957-16.179-34.079-23.224-56.32-23.224-28.221 0-54.19 14.623-70.205 39.608-15.032 23.429-15.442 58.941-0.983 82.985 6.472 10.691 21.094 25.149 31.99 31.498 16.056 9.38 40.714 12.288 60.58 7.086z" />
<glyph unicode="&#xe90e;" glyph-name="add" data-tags="add" d="M495.124 773.1c-5.136-1.858-9.55-4.559-13.303-7.975l0.032 0.028c-10.936-10.609-10.813-8.684-10.813-149.34v-126.853h-126.894c-139.878 0-138.035 0.123-149.012-10.527-14.254-13.804-14.254-47.063 0-60.867 10.977-10.65 9.134-10.527 149.012-10.527h126.894v-126.853c0-140.616-0.123-138.732 10.813-149.34 14.295-13.885 45.998-13.885 60.293 0 10.936 10.609 10.813 8.724 10.813 149.34v126.853h126.853c140.616 0 138.732-0.123 149.34 10.813 14.008 14.418 13.844 46.899-0.287 60.58-10.977 10.65-9.134 10.527-149.012 10.527h-126.894v126.853c0 140.616 0.123 138.732-10.813 149.34-10.035 9.748-30.31 13.189-47.022 7.946z" />
<glyph unicode="&#xe90f;" glyph-name="arrow-down" data-tags="arrow-down" d="M251.412 609.997c-8.52-4.219-21.955-18.145-25.395-26.296-1.465-3.705-2.314-7.997-2.314-12.488 0-5.339 1.2-10.398 3.346-14.921l-0.090 0.211c4.792-9.912 263.045-267.837 271.77-271.442 8.643-3.564 19.333-3.277 27.648 0.778 9.912 4.792 267.837 263.045 271.442 271.77 6.021 14.623 1.597 29.573-12.861 43.090-13.64 12.739-26.501 16.015-40.468 10.199-4.424-1.802-40.714-36.946-119.439-115.589l-113.050-112.968-113.050 112.968c-78.725 78.643-115.016 113.787-119.439 115.589-3.855 1.593-8.332 2.518-13.024 2.518-5.48 0-10.666-1.262-15.282-3.51l0.207 0.091z" />
<glyph unicode="&#xe910;" glyph-name="arrow-left" data-tags="arrow-left" d="M620.38 733.041c-9.871-4.874-267.756-263.25-271.319-271.77-1.572-3.827-2.484-8.269-2.484-12.924 0-5.345 1.203-10.409 3.353-14.936l-0.090 0.211c4.792-9.912 263.045-267.837 271.77-271.442 14.623-6.021 29.573-1.597 43.090 12.861 12.739 13.64 16.015 26.501 10.199 40.468-1.802 4.424-36.946 40.714-115.589 119.439l-112.968 113.050 112.968 113.050c78.643 78.725 113.787 115.016 115.589 119.439 1.597 3.856 2.524 8.335 2.524 13.030 0 5.414-1.233 10.541-3.434 15.114l0.091-0.209c-4.178 8.561-18.145 22.118-26.378 25.559-3.723 1.474-8.037 2.329-12.551 2.329-5.361 0-10.441-1.206-14.982-3.362l0.212 0.091z" />
<glyph unicode="&#xe911;" glyph-name="arrow-right" data-tags="arrow-right" d="M374.292 732.877c-8.52-4.219-21.955-18.145-25.395-26.296-1.483-3.795-2.342-8.188-2.342-12.782 0-4.793 0.936-9.368 2.634-13.551l-0.087 0.241c1.802-4.424 36.946-40.714 115.589-119.439l112.968-113.050-112.968-113.050c-78.643-78.725-113.787-115.016-115.589-119.439-5.816-13.967-2.54-26.829 10.199-40.468 13.517-14.459 28.467-18.883 43.090-12.861 8.724 3.604 266.977 261.53 271.77 271.442 2.035 4.209 3.224 9.154 3.224 14.377s-1.189 10.168-3.311 14.579l0.088-0.202c-4.792 9.912-263.045 267.837-271.77 271.442-3.842 1.572-8.3 2.485-12.971 2.485-5.499 0-10.702-1.264-15.335-3.518l0.208 0.091z" />
<glyph unicode="&#xe912;" glyph-name="arrow-up" data-tags="arrow-up" d="M497.5 610.161c-9.871-4.874-267.756-263.25-271.319-271.77-6.021-14.623-1.597-29.573 12.861-43.090 13.64-12.739 26.501-16.015 40.468-10.199 4.424 1.802 40.714 36.946 119.439 115.589l113.050 112.968 113.050-112.968c78.725-78.643 115.016-113.787 119.439-115.589 13.967-5.816 26.829-2.54 40.468 10.199 14.95 14.008 19.21 29.573 12.083 44.196-4.792 9.912-263.045 267.837-271.77 271.442-3.845 1.573-8.306 2.485-12.981 2.485-5.367 0-10.453-1.203-15.004-3.354l0.214 0.091z" />
<glyph unicode="&#xe913;" glyph-name="attachment" data-tags="attachment" d="M652.82 877.138c-28.672-5.325-55.214-16.712-77.865-33.341-9.871-7.25-69.878-65.946-193.249-189.071-98.427-98.222-187.515-187.802-198.001-199.107-29.532-31.867-48.701-63.119-60.662-99.082-8.127-24.094-12.817-51.842-12.817-80.686 0-29.075 4.765-57.037 13.558-83.147l-0.536 1.836c26.337-77.373 85.361-135.823 163.471-161.874 29.573-9.83 66.191-14.008 99.164-11.305 50.627 4.137 93.716 20.603 135.496 51.773 16.343 12.165 392.151 386.621 401.203 399.688 7.127 10.322 8.765 18.514 5.816 29.082-2.662 9.462-16.056 24.863-26.255 30.147-4.561 2.203-9.918 3.491-15.576 3.491-5.238 0-10.219-1.104-14.722-3.091l0.234 0.092c-3.277-1.638-93.88-90.726-201.359-197.96-148.726-148.357-198.328-196.813-207.544-202.875-17.49-11.428-34.98-19.251-54.436-24.453-14.5-3.85-20.808-4.547-41.82-4.669-28.59-0.205-42.598 2.376-67.461 12.534-42.975 18.261-76.497 51.796-94.305 93.629l-0.436 1.152c-9.708 23.798-12.739 39.977-12.575 67.42 0.123 26.911 3.604 43.704 13.926 67.707 13.476 31.252 8.888 26.296 220.488 238.060l197.222 197.386 14.5 6.84c17.367 8.151 27.894 10.568 46.653 10.568 16.548 0 30.188-3.154 45.507-10.527 15.483-7.455 38.011-30.31 45.834-46.49 14.008-29.041 13.722-61.522-0.778-91.464-6.021-12.411-11.796-18.432-191.611-198.574-108.954-109.199-187.638-186.778-190.874-188.17-25.108-10.895-50.995 13.967-41.329 39.731 0.983 2.703 73.359 76.472 164.536 167.813 161.137 161.341 162.816 163.062 165.56 172.605 4.055 14.295 0.328 25.477-12.943 38.584-16.179 15.974-31.58 18.145-48.087 6.717-4.915-3.4-81.51-78.971-170.23-167.936-172.851-173.261-169.615-169.738-177.644-195.052-4.915-15.401-6.103-43.008-2.58-59.515 4.506-21.176 13.189-36.372 30.884-54.026 17.777-17.777 33.014-26.501 53.821-30.884 16.957-3.523 44.442-2.376 59.72 2.54 25.723 8.274 19.497 2.499 222.904 205.824 202.711 202.588 200.335 200.049 214.016 230.482 36.741 81.797 9.216 179.159-64.553 228.393-31.457 20.972-59.884 30.024-97.608 31.13-2.765 0.157-6 0.246-9.256 0.246-9.675 0-19.166-0.79-28.411-2.308l1.008 0.137z" />
<glyph unicode="&#xe914;" glyph-name="calendar" data-tags="calendar" d="M331.284 895.98c-5.136-1.858-9.55-4.559-13.303-7.975l0.032 0.028c-8.561-8.274-10.813-18.104-10.813-46.735v-24.207l-26.010-1.229c-65.536-2.99-94.904-13.353-128.205-45.179-27.484-26.296-41.288-54.477-47.555-97.116-3.154-21.504-3.154-511.549 0-533.053 5.939-40.223 17.285-65.004 41.697-91.136 26.255-28.058 55.46-42.598 98.345-48.906 21.504-3.154 511.549-3.154 533.053 0 40.632 5.98 67.011 18.309 93.266 43.663 26.501 25.559 40.632 54.682 46.776 96.379 3.154 21.504 3.154 511.549 0 533.053-6.308 42.885-20.849 72.090-48.906 98.345-33.137 30.966-61.972 41.001-126.853 43.95l-26.010 1.229v24.207c0 28.631-2.294 38.461-10.813 46.735-14.418 14.008-46.899 13.844-60.58-0.287-8.356-8.602-10.527-18.268-10.527-46.612v-24.494h-245.76v24.453c0 28.836-2.253 38.666-10.813 46.94-10.035 9.748-30.31 13.189-47.022 7.946zM307.2 710.226c0-28.344 2.171-38.011 10.527-46.612 13.681-14.131 46.162-14.295 60.58-0.287 8.561 8.274 10.813 18.104 10.813 46.94v24.453h245.76v-24.453c0-28.836 2.253-38.666 10.813-46.94 14.295-13.885 45.998-13.885 60.293 0 8.561 8.315 10.813 18.063 10.813 47.227v24.699l26.010-1.024c30.761-1.229 41.411-3.195 54.559-10.117 11.674-6.185 26.624-21.34 32.563-33.055 6.84-13.476 8.356-25.764 9.298-74.506l0.86-45.67h-656.22l0.942 47.35c0.614 32.072 1.72 50.422 3.318 56.812 3.482 13.763 10.772 26.010 21.709 36.454 18.801 17.9 33.71 22.241 79.012 22.938l18.35 0.287v-24.494zM839.188 319.59c-0.492-126.566-1.229-171.786-2.785-178.79-4.628-20.521-21.586-42.148-40.509-51.773-17.695-8.97-13.025-8.806-283.894-8.806s-266.199-0.164-283.894 8.806c-11.387 5.775-26.706 20.603-32.727 31.662-10.281 18.924-9.953 12.247-10.609 198.042l-0.614 170.23h655.688l-0.655-169.37zM501.76 447.508c-3.277-1.229-23.47-13.967-44.851-28.303-41.984-28.14-46.981-32.973-48.579-46.899-1.065-9.503 1.679-18.35 9.216-29.532 11.715-17.49 26.87-23.020 44.524-16.261l8.97 3.4v-86.712h-9.134c-26.788 0-42.066-14.868-42.066-40.96 0-19.538 9.175-33.792 24.781-38.502 11.919-3.564 122.839-3.564 134.758 0 15.606 4.71 24.781 18.964 24.781 38.502 0 26.092-15.278 40.96-42.066 40.96h-9.134l-0.082 84.91c-0.082 91.464-0.041 91.177-9.257 104.489-9.912 14.254-27.156 20.398-41.861 14.909z" />
<glyph unicode="&#xe915;" glyph-name="checkbox" data-tags="checkbox" d="M295.24 825.037c-3.277-1.966-29.532-27.075-58.368-55.828l-52.429-52.265-12.411 12.042c-14.008 13.558-20.808 17.695-29.123 17.695-13.271 0-31.99-19.005-31.99-32.44 0-9.339 7.045-18.678 34.406-45.466 27.771-27.279 32.973-30.228 46.244-26.337 6.226 1.843 16.916 11.756 74.301 68.977 70.697 70.451 75.121 75.776 73.196 87.654-1.434 8.765-8.643 18.678-17.777 24.494-9.503 6.021-17.613 6.472-26.051 1.475zM454.164 752.62c-14.95-4.628-24.084-19.21-24.084-38.42 0-19.374 9.257-33.874 24.576-38.42 12.616-3.727 429.752-3.768 442.163-0.041 15.606 4.71 24.781 18.964 24.781 38.502s-9.175 33.792-24.781 38.502c-11.878 3.564-431.145 3.482-442.655-0.123zM295.24 538.317c-3.277-1.966-29.532-27.075-58.368-55.828l-52.429-52.265-12.411 12.042c-14.008 13.558-20.808 17.695-29.123 17.695-13.271 0-31.99-19.005-31.99-32.44 0-9.339 7.045-18.678 34.406-45.466 27.771-27.279 32.973-30.228 46.244-26.337 6.226 1.843 16.916 11.756 74.301 68.977 70.697 70.451 75.121 75.776 73.196 87.654-1.434 8.765-8.643 18.678-17.777 24.494-9.503 6.021-17.613 6.472-26.051 1.475zM454.164 465.9c-14.95-4.628-24.084-19.21-24.084-38.42 0-19.374 9.257-33.874 24.576-38.42 12.616-3.727 429.752-3.768 442.163-0.041 15.606 4.71 24.781 18.964 24.781 38.502s-9.175 33.792-24.781 38.502c-11.878 3.564-431.145 3.482-442.655-0.123zM295.24 251.597c-3.277-1.966-29.532-27.075-58.368-55.828l-52.429-52.265-12.411 12.042c-14.008 13.558-20.808 17.695-29.123 17.695-13.271 0-31.99-19.005-31.99-32.44 0-9.339 7.045-18.678 34.406-45.466 27.771-27.279 32.973-30.228 46.244-26.337 6.226 1.843 16.916 11.756 74.301 68.977 70.697 70.451 75.121 75.776 73.196 87.654-1.434 8.765-8.643 18.678-17.777 24.494-9.503 6.021-17.613 6.472-26.051 1.475zM454.164 179.18c-14.95-4.628-24.084-19.21-24.084-38.42 0-19.374 9.257-33.874 24.576-38.42 12.616-3.727 429.752-3.768 442.163-0.041 15.606 4.71 24.781 18.964 24.781 38.502s-9.175 33.792-24.781 38.502c-11.878 3.564-431.145 3.482-442.655-0.123z" />
<glyph unicode="&#xe916;" glyph-name="copy" data-tags="copy" d="M181.78 897.454c-29.164-2.499-47.555-8.151-65.577-20.152-27.648-18.35-45.425-45.752-51.569-79.421-3.441-18.883-3.441-435.118 0-454.001 9.052-49.684 44.278-86.221 93.225-96.748 9.052-1.925 28.672-2.744 80.445-3.441l68.526-0.86 0.86-68.526c0.696-51.773 1.516-71.393 3.441-80.445 10.527-48.947 47.063-84.173 96.748-93.225 18.883-3.441 435.118-3.441 454.001 0 51.241 9.339 88.146 46.244 97.485 97.485 3.441 18.883 3.441 435.118 0 454.001-9.052 49.684-44.278 86.221-93.225 96.748-9.052 1.925-28.672 2.744-80.445 3.441l-68.526 0.86-0.86 68.526c-0.942 72.049-1.884 81.879-9.626 101.458-10.936 27.689-37.478 54.313-65.004 65.208-23.716 9.339-16.179 9.052-243.18 9.38-115.466 0.164-212.992 0.041-216.719-0.287zM611 813.036c8.602-3.932 19.988-16.998 21.627-24.822 1.843-8.602 1.802-426.107 0-434.708-1.761-8.315-14.459-22.282-23.060-25.313-4.997-1.761-49.316-2.212-220.447-2.212s-215.45 0.451-220.447 2.212c-8.602 3.031-21.299 16.998-23.060 25.313-0.778 3.645-1.393 102.236-1.393 219.095 0 169.738 0.451 213.729 2.212 218.726 3.154 8.888 17.080 21.381 25.313 22.733 3.645 0.614 7.741 1.352 9.175 1.679 1.393 0.287 97.403 0.451 213.32 0.287 189.358-0.205 211.395-0.532 216.76-2.99zM856.76 567.276c8.602-3.932 19.988-16.957 21.627-24.822 0.778-3.604 1.393-102.195 1.393-219.054 0-169.738-0.451-213.729-2.212-218.726-3.031-8.602-16.998-21.299-25.313-23.060-8.602-1.802-426.107-1.843-434.708 0-7.864 1.638-20.89 13.025-24.822 21.627-2.294 5.079-2.785 16.138-3.277 72.827l-0.573 66.888 109.773 0.737c117.187 0.819 121.16 1.065 143.032 9.708 27.525 10.895 54.067 37.519 65.004 65.208 8.52 21.545 8.806 25.805 9.626 142.746l0.737 109.773 66.888-0.573c56.689-0.492 67.748-0.983 72.827-3.277z" />
<glyph unicode="&#xe917;" glyph-name="docs" data-tags="docs" d="M318.3 896.717c-50.258-3.564-87.204-13.353-116.367-30.884-12.82-7.7-31.498-25.149-40.755-38.175-21.34-29.86-32.399-68.362-36.536-127.058-2.417-34.243-2.376-521.667 0.041-541.082 10.465-83.971 76.305-149.812 159.378-160.185l0.899-0.092c19.907-2.458 434.176-2.458 454.083 0 24.153 2.906 46.068 10.211 65.713 21.109l-0.915-0.466c51.719 28.050 87.98 78.924 95.388 138.741l0.090 0.891c2.376 19.005 2.458 506.757 0.082 540.221-3.809 54.436-12.698 88.842-31.007 119.972-7.291 12.493-33.628 38.83-46.121 46.121-31.13 18.309-65.536 27.197-119.972 31.007-27.976 1.966-356.065 1.884-384-0.123zM728.392 812.626c57.917-9.83 77.005-28.877 86.794-86.794 2.662-15.729 3.031-35.594 3.564-188.621l0.614-171.049-281.272-0.532c-266.895-0.492-281.846-0.696-293.151-3.686-15.010-4.367-27.649-9.161-39.813-14.807l1.72 0.717c-1.802-0.819-2.089 32.031-1.556 180.552 0.614 159.171 1.024 183.583 3.523 197.796 10.158 58.286 30.188 77.947 87.695 86.098 27.935 3.932 21.545 3.85 224.010 3.564 172.605-0.246 191.939-0.532 207.872-3.236zM331.284 691.18c-14.95-4.628-24.084-19.21-24.084-38.42 0-19.374 9.257-33.874 24.576-38.42 12.575-3.727 347.873-3.768 360.243-0.041 15.606 4.71 24.781 18.964 24.781 38.502s-9.175 33.792-24.781 38.502c-11.837 3.564-349.266 3.482-360.735-0.123zM331.284 547.82c-14.95-4.628-24.084-19.21-24.084-38.42 0-19.374 9.257-33.874 24.576-38.42 12.575-3.727 224.993-3.727 237.568 0 15.319 4.547 24.576 19.046 24.576 38.461s-9.257 33.915-24.576 38.461c-12.042 3.564-226.55 3.523-238.060-0.082zM819.159 227.43c-0.041-63.201-0.942-71.311-10.445-91.054-7.905-16.384-30.147-38.625-46.531-46.531-22.487-10.813-13.025-10.445-250.184-10.445s-227.697-0.369-250.184 10.445c-8.684 4.178-15.606 9.503-26.296 20.234-23.839 23.798-30.638 42.312-30.679 83.681-0.041 34.529 4.547 48.824 21.504 66.601 5.038 5.284 12.902 11.633 17.449 14.131 18.268 9.912 2.703 9.421 301.056 9.544l274.35 0.123-0.041-56.73z" />
<glyph unicode="&#xe918;" glyph-name="edit" data-tags="edit" d="M757.187 906.998c-28.058-4.71-58.286-19.374-85.606-41.533-6.554-5.325-67.502-63.16-72.704-69.018l-141.804-142.787c-149.299-150.2-149.34-150.2-160.645-177.521-6.595-15.852-7.414-20.070-17.613-89.825-10.568-72.581-11.796-92.652-6.758-109.855 10.117-34.243 35.84-59.638 69.263-68.28 19.046-4.874 36.413-3.809 109.24 6.717 37.069 5.407 72.008 11.346 77.66 13.23 12.288 4.137 30.72 13.189 41.574 20.48 4.342 2.908 71.27 68.28 148.726 145.285 77.414 77.005 141.312 140.452 141.967 140.984 0.655 0.573 16.015 16.425 34.12 35.226 45.261 46.94 61.891 71.311 72.499 106.127 4.014 13.148 4.547 17.777 4.465 38.011-0.041 19.866-0.696 25.149-4.628 38.257-5.898 19.825-18.596 44.196-32.645 62.792-22.528 29.778-62.792 64.184-90.44 77.251-28.918 13.722-60.211 18.924-86.671 14.459zM349.88 897.372c-28.604-1.921-54.883-5.503-80.563-10.73l3.845 0.654c-56.115-12.042-98.345-33.669-132.588-67.871-42.189-42.189-64.594-94.74-75.162-176.005-2.826-21.75-3.113-39.444-3.113-195.42s0.287-173.67 3.113-195.42c10.568-81.265 32.973-133.816 75.162-176.005 42.107-42.107 94.863-64.635 176.005-75.162 21.75-2.826 39.444-3.113 195.42-3.113 155.484 0 173.752 0.287 195.42 3.072 80.568 10.404 133.898 33.219 175.923 75.284 41.124 41.083 63.816 92.815 74.26 169.083 2.867 20.931 3.686 38.38 4.465 95.355 1.065 79.094 0.573 84.255-9.257 95.109-13.64 15.155-47.35 15.77-61.44 1.188-9.667-10.035-9.667-9.953-10.854-89.252-0.614-40.346-2.048-79.913-3.154-87.859-16.097-115.589-62.915-161.997-179.323-177.848-23.388-3.195-348.692-3.195-372.081 0-117.064 15.933-163.553 62.423-179.528 179.528-3.195 23.388-3.195 348.692 0 372.081 15.892 116.613 62.054 163.185 177.848 179.323 7.987 1.106 47.432 2.54 87.9 3.154 79.258 1.188 79.176 1.188 89.211 10.854 14.090 13.558 13.967 46.94-0.205 60.662-10.199 9.912-15.401 10.568-81.183 10.199-32.481-0.164-64.020-0.573-70.124-0.86zM797.491 823.316c20.275-6.799 42.394-23.429 64.020-48.169 21.258-24.289 30.351-44.646 28.918-64.881-1.597-22.528-16.097-44.81-52.716-80.896l-15.933-15.729-17.326 8.274c-27.607 13.271-45.22 25.969-68.895 49.644-23.839 23.798-36.25 41.001-49.357 68.403l-8.561 17.777 15.729 15.974c47.104 47.8 72.909 60.088 104.12 49.603zM620.216 689.050c5.202-10.895 21.299-34.652 34.529-51.036 24.455-29.591 53.186-54.553 85.468-74.274l1.49-0.846c8.028-4.874 15.483-9.216 16.589-9.626 1.106-0.451-50.954-53.903-115.712-118.825-109.363-109.568-118.62-118.415-129.72-123.904-11.387-5.652-15.073-6.39-79.831-15.606-64.389-9.175-68.157-9.544-73.523-6.963-11.305 5.407-11.305 5.693-0.41 82.043 8.069 56.525 10.527 70.083 14.131 77.906 3.768 8.151 20.972 26.092 123.167 128.492 65.372 65.495 119.276 119.071 119.808 119.071s2.335-2.908 4.014-6.431z" />
<glyph unicode="" glyph-name="edit" data-tags="edit" d="M757.187 906.998c-28.058-4.71-58.286-19.374-85.606-41.533-6.554-5.325-67.502-63.16-72.704-69.018l-141.804-142.787c-149.299-150.2-149.34-150.2-160.645-177.521-6.595-15.852-7.414-20.070-17.613-89.825-10.568-72.581-11.796-92.652-6.758-109.855 10.117-34.243 35.84-59.638 69.263-68.28 19.046-4.874 36.413-3.809 109.24 6.717 37.069 5.407 72.008 11.346 77.66 13.23 12.288 4.137 30.72 13.189 41.574 20.48 4.342 2.908 71.27 68.28 148.726 145.285 77.414 77.005 141.312 140.452 141.967 140.984 0.655 0.573 16.015 16.425 34.12 35.226 45.261 46.94 61.891 71.311 72.499 106.127 4.014 13.148 4.547 17.777 4.465 38.011-0.041 19.866-0.696 25.149-4.628 38.257-5.898 19.825-18.596 44.196-32.645 62.792-22.528 29.778-62.792 64.184-90.44 77.251-28.918 13.722-60.211 18.924-86.671 14.459zM349.88 897.372c-28.604-1.921-54.883-5.503-80.563-10.73l3.845 0.654c-56.115-12.042-98.345-33.669-132.588-67.871-42.189-42.189-64.594-94.74-75.162-176.005-2.826-21.75-3.113-39.444-3.113-195.42s0.287-173.67 3.113-195.42c10.568-81.265 32.973-133.816 75.162-176.005 42.107-42.107 94.863-64.635 176.005-75.162 21.75-2.826 39.444-3.113 195.42-3.113 155.484 0 173.752 0.287 195.42 3.072 80.568 10.404 133.898 33.219 175.923 75.284 41.124 41.083 63.816 92.815 74.26 169.083 2.867 20.931 3.686 38.38 4.465 95.355 1.065 79.094 0.573 84.255-9.257 95.109-13.64 15.155-47.35 15.77-61.44 1.188-9.667-10.035-9.667-9.953-10.854-89.252-0.614-40.346-2.048-79.913-3.154-87.859-16.097-115.589-62.915-161.997-179.323-177.848-23.388-3.195-348.692-3.195-372.081 0-117.064 15.933-163.553 62.423-179.528 179.528-3.195 23.388-3.195 348.692 0 372.081 15.892 116.613 62.054 163.185 177.848 179.323 7.987 1.106 47.432 2.54 87.9 3.154 79.258 1.188 79.176 1.188 89.211 10.854 14.090 13.558 13.967 46.94-0.205 60.662-10.199 9.912-15.401 10.568-81.183 10.199-32.481-0.164-64.020-0.573-70.124-0.86zM797.491 823.316c20.275-6.799 42.394-23.429 64.020-48.169 21.258-24.289 30.351-44.646 28.918-64.881-1.597-22.528-16.097-44.81-52.716-80.896l-15.933-15.729-17.326 8.274c-27.607 13.271-45.22 25.969-68.895 49.644-23.839 23.798-36.25 41.001-49.357 68.403l-8.561 17.777 15.729 15.974c47.104 47.8 72.909 60.088 104.12 49.603zM620.216 689.050c5.202-10.895 21.299-34.652 34.529-51.036 24.455-29.591 53.186-54.553 85.468-74.274l1.49-0.846c8.028-4.874 15.483-9.216 16.589-9.626 1.106-0.451-50.954-53.903-115.712-118.825-109.363-109.568-118.62-118.415-129.72-123.904-11.387-5.652-15.073-6.39-79.831-15.606-64.389-9.175-68.157-9.544-73.523-6.963-11.305 5.407-11.305 5.693-0.41 82.043 8.069 56.525 10.527 70.083 14.131 77.906 3.768 8.151 20.972 26.092 123.167 128.492 65.372 65.495 119.276 119.071 119.808 119.071s2.335-2.908 4.014-6.431z" />
<glyph unicode="view" glyph-name="view" data-tags="view" d="M476.16 773.96c-107.233-11.182-201.318-59.72-292.782-150.979-41.042-40.96-91.177-107.028-108.093-142.459-5.98-12.493-6.144-13.476-6.144-32.522 0-19.087 0.164-19.988 6.267-32.768 3.441-7.209 14.090-24.74 23.634-38.871 85.606-127.017 201.687-216.105 318.259-244.163 35.185-8.479 56.156-10.895 94.7-10.895s59.515 2.417 94.74 10.895c118.292 28.508 235.725 119.521 322.028 249.528 7.537 11.387 16.507 26.542 19.907 33.669 6.021 12.575 6.226 13.558 6.226 32.604s-0.205 20.029-6.226 32.604c-16.916 35.471-66.601 100.925-108.052 142.418-84.705 84.787-174.572 133.775-272.302 148.357-21.668 3.236-72.212 4.669-92.16 2.58zM561.48 689.787c61.112-10.445 118.784-37.765 175.8-83.19 21.791-17.367 64.184-59.515 82.78-82.33 15.196-18.637 39.854-52.675 48.538-66.929l5.652-9.339-5.652-9.339c-20.439-33.669-53.903-75.366-87.777-109.322-70.492-70.615-143.196-110.92-223.601-123.945-7.619-1.229-27.566-2.212-45.22-2.212-53.494 0-93.102 9.257-142.5 33.3-44.974 21.873-84.378 50.831-126.28 92.856-33.915 33.956-67.379 75.653-87.818 109.322l-5.652 9.339 5.652 9.339c8.684 14.254 33.341 48.292 48.538 66.929 18.596 22.815 60.989 64.963 82.78 82.33 58.286 46.449 121.61 75.858 180.060 83.64l18.76 2.54c10.24 1.434 61.809-0.573 75.94-2.99zM489.513 610.12c-43.704-6.963-82.043-29.45-107.643-63.119-12.419-17.336-22.301-37.514-28.536-59.235l-0.341-1.386c-5.325-21.586-5.325-55.173 0-76.554 9.641-37.562 30.891-69.189 59.637-91.677l0.37-0.279c15.114-11.469 42.025-24.289 60.621-28.877 21.627-5.325 55.132-5.325 76.8 0 23.091 6.585 43.255 16.465 61.175 29.281l-0.595-0.405c29.115 22.767 50.366 54.393 59.751 90.787l0.256 1.168c5.325 21.381 5.325 54.968 0 76.554-6.575 23.107-16.457 43.285-29.281 61.215l0.404-0.594c-22.553 28.893-53.854 50.021-89.887 59.46l-1.167 0.26c-16.384 3.973-47.227 5.693-61.563 3.4zM533.381 527.258c26.296-6.84 51.118-31.662 57.917-57.876 1.794-6.329 2.825-13.599 2.825-21.109 0-23.286-9.914-44.256-25.751-58.92l-0.053-0.048c-16.957-16.179-34.079-23.224-56.32-23.224-28.221 0-54.19 14.623-70.205 39.608-15.032 23.429-15.442 58.941-0.983 82.985 6.472 10.691 21.094 25.149 31.99 31.498 16.056 9.38 40.714 12.288 60.58 7.086z" />
<glyph unicode="url" glyph-name="link" data-tags="link" d="M662.036 865.915c-42.598-3.768-90.112-22.282-124.969-48.701-16.712-12.698-86.18-82.207-91.791-91.873-8.724-15.073-5.612-30.556 9.134-45.261 14.172-14.172 29.245-17.654 44.032-10.199 4.751 2.417 22.364 18.473 46.858 42.68 25.6 25.313 43.377 41.492 51.2 46.49 60.785 38.953 139.428 34.365 193.823-11.387 36.269-30.222 59.184-75.406 59.184-125.942 0-33.196-9.888-64.083-26.878-89.877l0.381 0.615c-4.956-7.741-21.258-25.723-46.449-51.2-23.921-24.207-40.264-42.148-42.639-46.817-7.537-14.746-4.055-29.819 10.158-44.032 14.705-14.746 30.188-17.859 45.261-9.134 9.667 5.612 79.176 75.080 91.873 91.791 26.752 35.547 44.396 79.343 48.712 126.987l0.071 0.972c0.568 6.26 0.892 13.54 0.892 20.896 0 115.785-80.231 212.831-188.131 238.578l-1.669 0.336c-13.517 3.154-49.93 7.332-59.269 6.758-1.884-0.123-10.772-0.86-19.784-1.679zM640.86 630.641c-9.871-4.915-308.716-304.21-312.279-312.73-5.775-13.967-2.499-26.829 10.24-40.468 13.517-14.459 28.467-18.883 43.090-12.861 8.724 3.645 307.937 302.449 312.73 312.402 2.038 4.227 3.229 9.191 3.229 14.434 0 5.31-1.222 10.334-3.399 14.808l0.088-0.201c-4.178 8.561-18.145 22.118-26.378 25.559-3.723 1.474-8.037 2.329-12.551 2.329-5.361 0-10.441-1.206-14.982-3.362l0.212 0.091zM234.66 514.724c-10.854-6.308-80.609-76.595-93.266-94.044-28.344-38.953-43.581-79.708-47.432-126.689-0.539-6.084-0.847-13.161-0.847-20.311 0-67.519 27.425-128.633 71.742-172.809l0.006-0.006c44.128-44.328 105.197-71.758 172.672-71.758 7.185 0 14.298 0.311 21.326 0.92l-0.913-0.064c51.842 4.028 98.424 23.768 135.714 54.404l-0.423-0.337c18.514 14.991 84.173 82.084 87.572 89.457 6.185 13.476 2.048 29.164-11.223 42.435-14.213 14.213-29.286 17.695-44.032 10.158-4.669-2.376-22.61-18.719-46.817-42.639-25.477-25.19-43.459-41.492-51.2-46.449-25.137-16.602-55.981-26.486-89.133-26.486-17.537 0-34.429 2.766-50.262 7.885l1.155-0.323c-92.406 29-139.96 132.833-101.335 221.307 10.117 23.101 19.087 34.488 60.211 76.186 23.757 24.084 40.796 42.762 42.68 46.776 6.595 14.213 2.744 29.573-10.936 43.254-14.705 14.746-30.188 17.859-45.261 9.134z" />
<glyph unicode="trash" glyph-name="trash" data-tags="trash" d="M427.54 897.495c-39.363-3.604-64.348-14.377-85.729-36.987-24.289-25.682-32.072-48.333-34.079-98.918l-1.065-26.87h-85.647c-94.74 0-97.198-0.246-107.807-10.527-14.254-13.804-14.254-47.063 0-60.867 8.602-8.356 18.268-10.527 46.531-10.527h24.412l0.696-252.15c0.737-261.816 0.655-259.031 8.11-287.908 12.698-49.275 57.057-93.716 106.537-106.66 29.041-7.619 34.079-7.782 212.5-7.782s183.46 0.164 212.5 7.782c49.439 12.943 93.88 57.508 106.578 106.865 7.373 28.631 7.332 26.173 8.069 287.703l0.696 252.15h24.412c28.262 0 37.929 2.171 46.531 10.527 14.254 13.804 14.254 47.063 0 60.867-10.609 10.281-13.066 10.527-107.807 10.527h-85.647l-1.065 26.87c-1.679 42.148-6.308 60.58-20.849 82.412-12.82 19.292-33.546 36.372-54.026 44.442-20.89 8.274-27.566 8.765-120.013 9.257-11.601 0.134-25.306 0.211-39.029 0.211-19.272 0-38.509-0.151-57.709-0.451l2.899 0.036zM610.14 813.527c7.168-3.072 17.818-13.681 20.931-20.767 1.802-4.137 2.867-13.967 3.441-32.031l0.819-26.010h-246.661l0.819 26.010c0.573 17.695 1.638 27.976 3.4 32.031 3.768 8.806 16.753 20.029 24.658 21.34 3.604 0.573 7.7 1.311 9.134 1.638 16.857 0.283 36.746 0.445 56.673 0.445 11.872 0 23.731-0.057 35.577-0.172l-1.81 0.014c67.584-0.205 89.088-0.819 93.020-2.499zM757.268 401.51c-0.655-268.575-0.41-261.038-9.216-278.446-5.939-11.715-20.89-26.87-32.604-33.137-18.227-9.708-18.145-9.708-203.448-9.708-182.723 0-184.73 0.082-201.974 8.806-11.387 5.775-26.706 20.603-32.727 31.662-10.568 19.456-9.994 4.014-10.609 279.962l-0.573 252.15h491.766l-0.614-251.29zM413.204 506.86c-5.136-1.858-9.55-4.559-13.303-7.975l0.032 0.028c-10.813-10.486-10.813-10.322-10.813-132.833 0-122.47 0-122.348 10.813-132.833 14.295-13.885 45.998-13.885 60.293 0 10.813 10.486 10.813 10.363 10.813 132.833s0 122.348-10.813 132.833c-10.035 9.748-30.31 13.189-47.022 7.946zM577.044 506.86c-5.136-1.858-9.55-4.559-13.303-7.975l0.032 0.028c-10.813-10.486-10.813-10.322-10.813-132.833 0-122.47 0-122.348 10.813-132.833 14.295-13.885 45.998-13.885 60.293 0 10.813 10.486 10.813 10.363 10.813 132.833s0 122.348-10.813 132.833c-10.035 9.748-30.31 13.189-47.022 7.946z" />
<glyph unicode="textarea" glyph-name="textarea" data-tags="textarea" d="M126.484 732.14c-14.95-4.628-24.084-19.21-24.084-38.42 0-19.374 9.257-33.874 24.576-38.42 12.78-3.768 716.308-3.768 729.088 0 15.319 4.547 24.576 19.046 24.576 38.461s-9.257 33.915-24.576 38.461c-12.247 3.604-717.906 3.564-729.58-0.082zM126.484 568.3c-14.95-4.628-24.084-19.21-24.084-38.42 0-19.374 9.257-33.874 24.576-38.42 12.616-3.727 552.591-3.768 565.043-0.041 15.606 4.71 24.781 18.964 24.781 38.502s-9.175 33.792-24.781 38.502c-11.919 3.564-554.025 3.482-565.535-0.123zM126.484 404.46c-14.95-4.628-24.084-19.21-24.084-38.42 0-19.374 9.257-33.874 24.576-38.42 12.78-3.768 716.308-3.768 729.088 0 15.319 4.547 24.576 19.046 24.576 38.461s-9.257 33.915-24.576 38.461c-12.247 3.604-717.906 3.564-729.58-0.082zM126.484 240.62c-14.95-4.628-24.084-19.21-24.084-38.42 0-19.374 9.257-33.874 24.576-38.42 12.616-3.727 552.591-3.768 565.043-0.041 15.606 4.71 24.781 18.964 24.781 38.502s-9.175 33.792-24.781 38.502c-11.919 3.564-554.025 3.482-565.535-0.123z" />
<glyph unicode="text-input" glyph-name="text-input" data-tags="text-input" d="M597.524 855.020c-5.136-1.858-9.55-4.559-13.303-7.975l0.032 0.028c-14.131-13.681-14.295-46.121-0.287-60.58 8.929-9.216 17.326-10.813 57.18-10.813h34.693v-655.36h-34.734c-39.322 0-47.596-1.516-56.852-10.527-14.254-13.804-14.254-47.063 0-60.867 10.854-10.527 10.691-10.527 132.547-10.527s121.692 0 132.547 10.527c14.254 13.804 14.254 47.063 0 60.867-9.257 9.011-17.531 10.527-56.852 10.527h-34.734v81.469l48.21 0.983c61.358 1.27 76.104 4.096 99.779 19.251 27.946 18.022 47.686 46.713 53.514 80.181l0.103 0.715c3.4 18.678 3.4 271.483 0 290.161-5.931 34.183-25.671 62.874-53.146 80.612l-0.471 0.284c-23.675 15.155-38.42 17.981-99.779 19.251l-48.21 0.983v81.469h34.693c39.854 0 48.251 1.597 57.18 10.813 9.789 10.076 13.148 29.45 8.069 46.326-3.201 10.718-11.433 19.004-21.885 22.221l-0.233 0.062c-12.042 3.564-226.55 3.523-238.060-0.082zM181.78 692.654c-28.59-2.335-47.514-8.11-65.577-20.152-27.648-18.35-45.425-45.752-51.569-79.421-3.4-18.678-3.4-271.483 0-290.161 7.537-41.329 35.103-75.899 72.212-90.563 23.101-9.175 18.022-8.929 226.673-9.667 143.77-0.532 196.076-0.205 202.834 1.27 11.996 2.38 21.487 11.106 24.926 22.462l0.060 0.23c7.004 23.47-0.983 46.653-18.76 54.436-4.096 1.761-44.851 2.376-202.22 3.072-176.046 0.778-197.755 1.147-203.121 3.604-8.602 3.932-19.988 16.998-21.627 24.822-1.843 8.561-1.843 262.267 0 270.828 1.638 7.823 13.025 20.89 21.627 24.822 5.366 2.458 27.075 2.826 203.121 3.604 214.18 0.942 202.138 0.328 212.951 10.732 14.090 13.558 13.967 46.94-0.205 60.662-11.305 10.936-3.154 10.568-208.323 10.24-102.4-0.164-189.276-0.532-193.004-0.819zM856.76 608.195c8.561-3.85 19.988-16.916 21.627-24.781 1.843-8.561 1.843-262.267 0-270.828-1.638-7.864-13.066-20.931-21.627-24.781-4.833-2.13-15.073-2.785-52.511-3.318l-46.49-0.655v328.335l46.49-0.655c37.437-0.532 47.677-1.188 52.511-3.318z" />
<glyph unicode="tel" glyph-name="phone" data-tags="phone" d="M272.056 874.476c-24.289-2.253-43.377-10.24-64.061-26.788-19.292-15.401-71.148-69.304-80.65-83.804-26.419-40.264-33.382-86.385-20.644-136.806 6.84-27.116 26.378-84.746 38.42-113.377 31.621-75.080 80.691-154.051 133.079-214.18 78.356-89.989 174.899-163.226 277.955-210.862 55.869-25.846 134.39-51.569 169.001-55.378 37.151-4.055 75.776 5.816 108.544 27.812 12.042 8.069 74.629 69.345 85.361 83.558 16.015 21.217 23.552 44.646 23.429 72.95-0.164 43.991-13.394 66.888-69.878 121.16-33.71 32.399-51.937 42.476-84.419 46.572-41.001 5.202-76.595-9.257-112.271-45.548l-9.298-9.462-18.842 9.912c-103.26 54.231-183.501 134.062-238.797 237.65-5.284 9.912-9.626 19.005-9.626 20.234 0 1.188 6.881 9.38 15.278 18.145 17.449 18.268 27.525 34.079 33.833 53.125 3.768 11.387 4.424 16.425 4.506 35.471 0.287 45.998-11.305 66.888-66.929 120.627-31.785 30.72-47.227 40.509-72.868 46.326-8.423 2.154-18.094 3.39-28.053 3.39-4.605 0-9.149-0.264-13.616-0.779l0.545 0.051zM297.861 791.613c6.881-2.335 13.312-7.741 37.724-31.703 32.44-31.867 36.454-37.724 36.454-53.371 0-13.844-3.195-19.62-21.709-39.199-25.969-27.443-32.891-42.066-32.891-69.55 0-16.835 3.645-28.017 17.9-55.255 60.277-114.312 150.185-205.996 259.625-266.772l3.297-1.68c35.717-19.497 44.851-22.856 64.266-23.716 29.532-1.311 44.564 5.53 73.687 33.505 18.391 17.613 24.289 20.767 38.83 20.767 14.008-0.041 22.323-5.816 52.265-36.332 31.048-31.621 35.389-38.42 34.161-53.289-0.548-5.547-1.897-10.64-3.937-15.364l0.128 0.332c-3.441-7.168-59.269-63.98-70.533-71.762-9.585-6.595-27.853-13.025-40.387-14.172-12.206-1.106-28.713 2.458-65.782 14.131-123.74 39.076-225.198 102.851-317.44 199.557-79.176 83.026-136.52 182.067-170.312 294.339-12.042 39.936-13.435 48.988-9.994 65.741 4.833 23.716 8.356 28.795 46.203 66.765 28.017 28.099 35.676 34.857 41.943 36.987 3.934 1.645 8.506 2.601 13.301 2.601 4.757 0 9.293-0.941 13.435-2.646l-0.235 0.086z" />
<glyph unicode="settings" glyph-name="settings" data-tags="settings" d="M417.423 809.759c-63.734-10.076-111.862-49.807-134.185-110.879l-4.71-12.82-70.574-0.819c-81.060-0.983-79.708-0.737-89.334-16.261-4.71-7.578-5.12-9.462-5.12-23.88 0-14.377 0.41-16.261 5.12-23.839 9.626-15.524 8.274-15.278 89.334-16.261l70.574-0.86 4.792-13.025c13.926-38.216 38.543-68.444 72.54-89.047 25.19-15.278 51.732-22.282 84.46-22.282 41.902 0 73.318 11.182 106.332 37.888 23.511 19.005 45.466 53.207 54.436 84.787 3.359 11.756 3.891 17.654 3.891 42.639 0 34.284-2.54 45.752-16.179 73.4-17.431 34.854-45.559 62.188-80.023 78.171l-1.037 0.431c-24.822 11.018-64.963 16.63-90.317 12.657zM461.578 726.979c36.37-9.578 62.756-42.171 62.756-80.928 0-0.335-0.002-0.669-0.006-1.002v0.051c0-83.558-107.356-115.958-154.46-46.572-18.391 27.075-18.391 66.109 0 93.184 15.475 22.971 41.388 37.88 70.784 37.88 7.434 0 14.645-0.953 21.517-2.745l-0.592 0.131zM637.46 682.988c-9.626-3.809-12.698-6.349-17.449-14.418-4.26-7.25-4.751-9.708-4.751-23.593 0-14.254 0.41-16.138 5.12-23.716 2.966-4.921 7.002-8.917 11.804-11.752l0.157-0.085c6.717-3.523 8.315-3.564 130.54-3.564s123.822 0.041 130.58 3.564c4.936 2.934 8.955 6.927 11.834 11.686l0.085 0.151c4.71 7.578 5.12 9.462 5.12 23.839 0 14.418-0.41 16.302-5.12 23.88-2.964 4.911-6.983 8.904-11.764 11.752l-0.155 0.086c-6.758 3.523-8.724 3.564-128.86 3.891-90.644 0.205-123.372-0.246-127.14-1.72zM560.783 415.519c-67.338-10.609-118.948-56.32-137.83-121.979-3.4-11.837-3.932-17.49-3.932-42.68 0-34.12 2.499-45.466 16.138-73.359 21.914-44.892 60.826-75.94 110.674-88.269 20.849-5.202 54.845-5.202 75.694 0 56.402 13.967 97.853 51.118 118.579 106.168l5.448 14.5 70.533 0.86c81.019 0.983 79.667 0.737 89.293 16.261 4.71 7.578 5.12 9.462 5.12 23.839 0 14.418-0.41 16.302-5.12 23.88-9.626 15.524-8.274 15.278-89.293 16.261l-70.533 0.819-5.448 14.541c-16.589 44.073-48.251 78.397-89.006 96.502-24.822 11.018-64.963 16.63-90.317 12.657zM604.938 332.739c36.37-9.578 62.756-42.171 62.756-80.928 0-0.335-0.002-0.669-0.006-1.002v0.051c0-83.558-107.356-115.958-154.46-46.572-18.391 27.075-18.391 66.109 0 93.184 15.475 22.971 41.388 37.88 70.784 37.88 7.434 0 14.645-0.953 21.517-2.745l-0.592 0.131zM135.7 288.748c-9.626-3.809-12.698-6.349-17.449-14.418-4.26-7.25-4.751-9.708-4.751-23.593 0-14.254 0.41-16.138 5.12-23.716 2.966-4.921 7.002-8.917 11.804-11.752l0.157-0.085c6.717-3.523 8.315-3.564 130.54-3.564s123.822 0.041 130.58 3.564c4.936 2.934 8.955 6.927 11.834 11.686l0.085 0.151c4.71 7.578 5.12 9.462 5.12 23.839 0 14.418-0.41 16.302-5.12 23.88-2.964 4.911-6.983 8.904-11.764 11.752l-0.155 0.086c-6.758 3.523-8.724 3.564-128.86 3.891-90.644 0.205-123.372-0.246-127.14-1.72z" />
<glyph unicode="select" glyph-name="select" data-tags="select" d="M102.81 710.39l0.451-145.49 261.939-0.86 0.901-524.78h554.639l0.451 350.29 0.41 350.29h-117.76v116.040h-701.44l0.41-145.49zM745.8 768.84v-29h-380.559v-116.040h-203.121v174.080h583.68v-29.041zM861.88 389.96v-291.84h-436.92v583.68h436.92v-291.84zM483 564.040v-29h57.999v58.040h-57.999v-29.041zM599.409 564.49l0.492-28.59 203.94-0.901v58.081h-204.882l0.451-28.59zM483 389.96v-29h57.999v58.040h-57.999v-29.041zM599.040 389.96v-29h204.8v58.040h-204.8v-29.041zM483 214.2v-29.041h57.999v58.040h-57.999v-29zM599.040 214.2v-29.041h204.8v58.040h-204.8v-29z" />
<glyph unicode="remove" glyph-name="trash" data-tags="trash" d="M427.54 897.495c-39.363-3.604-64.348-14.377-85.729-36.987-24.289-25.682-32.072-48.333-34.079-98.918l-1.065-26.87h-85.647c-94.74 0-97.198-0.246-107.807-10.527-14.254-13.804-14.254-47.063 0-60.867 8.602-8.356 18.268-10.527 46.531-10.527h24.412l0.696-252.15c0.737-261.816 0.655-259.031 8.11-287.908 12.698-49.275 57.057-93.716 106.537-106.66 29.041-7.619 34.079-7.782 212.5-7.782s183.46 0.164 212.5 7.782c49.439 12.943 93.88 57.508 106.578 106.865 7.373 28.631 7.332 26.173 8.069 287.703l0.696 252.15h24.412c28.262 0 37.929 2.171 46.531 10.527 14.254 13.804 14.254 47.063 0 60.867-10.609 10.281-13.066 10.527-107.807 10.527h-85.647l-1.065 26.87c-1.679 42.148-6.308 60.58-20.849 82.412-12.82 19.292-33.546 36.372-54.026 44.442-20.89 8.274-27.566 8.765-120.013 9.257-11.601 0.134-25.306 0.211-39.029 0.211-19.272 0-38.509-0.151-57.709-0.451l2.899 0.036zM610.14 813.527c7.168-3.072 17.818-13.681 20.931-20.767 1.802-4.137 2.867-13.967 3.441-32.031l0.819-26.010h-246.661l0.819 26.010c0.573 17.695 1.638 27.976 3.4 32.031 3.768 8.806 16.753 20.029 24.658 21.34 3.604 0.573 7.7 1.311 9.134 1.638 16.857 0.283 36.746 0.445 56.673 0.445 11.872 0 23.731-0.057 35.577-0.172l-1.81 0.014c67.584-0.205 89.088-0.819 93.020-2.499zM757.268 401.51c-0.655-268.575-0.41-261.038-9.216-278.446-5.939-11.715-20.89-26.87-32.604-33.137-18.227-9.708-18.145-9.708-203.448-9.708-182.723 0-184.73 0.082-201.974 8.806-11.387 5.775-26.706 20.603-32.727 31.662-10.568 19.456-9.994 4.014-10.609 279.962l-0.573 252.15h491.766l-0.614-251.29zM413.204 506.86c-5.136-1.858-9.55-4.559-13.303-7.975l0.032 0.028c-10.813-10.486-10.813-10.322-10.813-132.833 0-122.47 0-122.348 10.813-132.833 14.295-13.885 45.998-13.885 60.293 0 10.813 10.486 10.813 10.363 10.813 132.833s0 122.348-10.813 132.833c-10.035 9.748-30.31 13.189-47.022 7.946zM577.044 506.86c-5.136-1.858-9.55-4.559-13.303-7.975l0.032 0.028c-10.813-10.486-10.813-10.322-10.813-132.833 0-122.47 0-122.348 10.813-132.833 14.295-13.885 45.998-13.885 60.293 0 10.813 10.486 10.813 10.363 10.813 132.833s0 122.348-10.813 132.833c-10.035 9.748-30.31 13.189-47.022 7.946z" />
<glyph unicode="radio" glyph-name="radio" data-tags="radio" d="M295.322 805.417c-3.523-1.516-25.559-22.118-53.78-50.176l-47.841-47.555-20.89 20.275c-22.282 21.627-28.672 25.313-40.182 23.142-6.717-1.27-20.48-12.534-24.33-19.907-1.612-3.276-2.555-7.13-2.555-11.205 0-5.755 1.881-11.071 5.062-15.366l-0.049 0.070c2.703-3.686 19.415-21.012 37.11-38.502 26.214-25.928 33.505-32.236 39.404-33.956 13.967-4.137 15.483-2.949 85.279 67.052 55.173 55.337 63.529 64.43 64.553 70.001 1.843 9.912-0.369 17.285-7.7 25.6-11.1 12.575-21.75 15.852-34.079 10.527zM420.045 757.78c-15.933-4.997-22.815-16.507-22.938-38.42-0.123-19.743 4.588-29 18.473-36.454l6.84-3.645h477.921l8.438 4.342c6.758 3.441 9.421 6.226 13.353 13.64 4.424 8.52 4.833 10.568 4.301 23.839-0.86 21.914-8.151 32.809-25.108 37.519-4.014 1.106-88.269 1.679-239.985 1.597-192.471-0.082-235.151-0.532-241.295-2.417zM189.972 560.64c-38.257-8.069-72.868-42.394-80.609-79.872-1.134-7.030-1.781-15.133-1.781-23.388s0.648-16.359 1.895-24.263l-0.114 0.875c7.864-38.175 44.278-73.482 82.534-79.995 16.138-2.744 41.615-1.065 55.337 3.645 12.984 4.506 33.219 17.654 41.984 27.361 10.281 11.387 19.538 27.034 23.593 39.895 5.366 17.121 5.366 47.882 0 65.004-5.512 15.422-13.534 28.692-23.691 40.006l0.098-0.111c-9.134 10.076-29.819 23.347-43.090 27.607-12.82 4.096-43.745 5.898-56.156 3.236zM230.4 497.357c9.698-4.109 17.295-11.6 21.443-20.959l0.102-0.258c2.54-5.521 4.022-11.979 4.022-18.784 0-11.727-4.4-22.426-11.639-30.536l0.040 0.045c-10.363-11.059-30.106-15.852-46.612-11.264-8.315 2.294-20.849 13.64-25.354 22.938-4.342 9.011-4.956 26.419-1.188 35.43 5.549 11.796 15.295 20.85 27.269 25.365l0.338 0.112c7.537 2.458 23.88 1.393 31.58-2.089zM418.98 495.227c-15.729-6.144-22.118-17.080-22.118-37.847 0-21.135 6.922-32.768 22.815-38.134 8.069-2.744 474.112-2.785 483.983-0.082 8.684 2.417 18.76 12.493 21.176 21.176 1.152 5.121 1.812 11.003 1.812 17.039s-0.66 11.918-1.912 17.577l0.1-0.538c-2.417 8.684-12.493 18.76-21.176 21.176-9.994 2.744-477.553 2.417-484.68-0.369zM197.14 299.479c-23.675-3.236-40.755-12.206-59.761-31.375-21.012-21.258-29.778-42.639-29.819-72.827-0.041-26.337 7.455-47.636 23.593-67.052 43.172-51.855 120.545-51.118 163.717 1.597 24.904 30.392 29.819 74.465 12.37 110.838-9.1 17.732-22.001 32.351-37.705 43.205l-0.388 0.254c-19.128 12.534-47.882 18.678-72.008 15.36zM231.383 235.008c8.643-4.465 18.637-14.868 21.955-22.897 3.686-8.806 3.359-26.092-0.655-34.898-4.424-9.748-15.688-20.234-25.19-23.47-4.478-1.701-9.656-2.686-15.064-2.686-17.212 0-32.094 9.978-39.176 24.465l-0.114 0.258c-12.247 25.068 0.573 53.453 28.221 62.505 6.799 2.253 22.692 0.492 30.024-3.277zM422.666 233.943c-17.572-4.751-25.805-17.039-25.805-38.543 0-14.172 2.54-22.282 9.175-29.573 10.363-11.346-9.953-10.486 251.576-10.977 156.385-0.287 239.124 0.123 243.384 1.27 17.203 4.628 24.576 15.524 25.436 37.601 0.532 13.23 0.123 15.319-4.301 23.798-3.932 7.455-6.595 10.199-13.353 13.64l-8.438 4.342-234.701 0.369c-188.908 0.246-236.298-0.123-242.975-1.925z" />
<glyph unicode="plus" glyph-name="add" data-tags="add" d="M495.124 773.1c-5.136-1.858-9.55-4.559-13.303-7.975l0.032 0.028c-10.936-10.609-10.813-8.684-10.813-149.34v-126.853h-126.894c-139.878 0-138.035 0.123-149.012-10.527-14.254-13.804-14.254-47.063 0-60.867 10.977-10.65 9.134-10.527 149.012-10.527h126.894v-126.853c0-140.616-0.123-138.732 10.813-149.34 14.295-13.885 45.998-13.885 60.293 0 10.936 10.609 10.813 8.724 10.813 149.34v126.853h126.853c140.616 0 138.732-0.123 149.34 10.813 14.008 14.418 13.844 46.899-0.287 60.58-10.977 10.65-9.134 10.527-149.012 10.527h-126.894v126.853c0 140.616 0.123 138.732-10.813 149.34-10.035 9.748-30.31 13.189-47.022 7.946z" />
<glyph unicode="phone" glyph-name="phone" data-tags="phone" d="M272.056 874.476c-24.289-2.253-43.377-10.24-64.061-26.788-19.292-15.401-71.148-69.304-80.65-83.804-26.419-40.264-33.382-86.385-20.644-136.806 6.84-27.116 26.378-84.746 38.42-113.377 31.621-75.080 80.691-154.051 133.079-214.18 78.356-89.989 174.899-163.226 277.955-210.862 55.869-25.846 134.39-51.569 169.001-55.378 37.151-4.055 75.776 5.816 108.544 27.812 12.042 8.069 74.629 69.345 85.361 83.558 16.015 21.217 23.552 44.646 23.429 72.95-0.164 43.991-13.394 66.888-69.878 121.16-33.71 32.399-51.937 42.476-84.419 46.572-41.001 5.202-76.595-9.257-112.271-45.548l-9.298-9.462-18.842 9.912c-103.26 54.231-183.501 134.062-238.797 237.65-5.284 9.912-9.626 19.005-9.626 20.234 0 1.188 6.881 9.38 15.278 18.145 17.449 18.268 27.525 34.079 33.833 53.125 3.768 11.387 4.424 16.425 4.506 35.471 0.287 45.998-11.305 66.888-66.929 120.627-31.785 30.72-47.227 40.509-72.868 46.326-8.423 2.154-18.094 3.39-28.053 3.39-4.605 0-9.149-0.264-13.616-0.779l0.545 0.051zM297.861 791.613c6.881-2.335 13.312-7.741 37.724-31.703 32.44-31.867 36.454-37.724 36.454-53.371 0-13.844-3.195-19.62-21.709-39.199-25.969-27.443-32.891-42.066-32.891-69.55 0-16.835 3.645-28.017 17.9-55.255 60.277-114.312 150.185-205.996 259.625-266.772l3.297-1.68c35.717-19.497 44.851-22.856 64.266-23.716 29.532-1.311 44.564 5.53 73.687 33.505 18.391 17.613 24.289 20.767 38.83 20.767 14.008-0.041 22.323-5.816 52.265-36.332 31.048-31.621 35.389-38.42 34.161-53.289-0.548-5.547-1.897-10.64-3.937-15.364l0.128 0.332c-3.441-7.168-59.269-63.98-70.533-71.762-9.585-6.595-27.853-13.025-40.387-14.172-12.206-1.106-28.713 2.458-65.782 14.131-123.74 39.076-225.198 102.851-317.44 199.557-79.176 83.026-136.52 182.067-170.312 294.339-12.042 39.936-13.435 48.988-9.994 65.741 4.833 23.716 8.356 28.795 46.203 66.765 28.017 28.099 35.676 34.857 41.943 36.987 3.934 1.645 8.506 2.601 13.301 2.601 4.757 0 9.293-0.941 13.435-2.646l-0.235 0.086z" />
<glyph unicode="paragraph" glyph-name="paragraph" data-tags="paragraph" d="M261.857 855.88c-48.947-3.441-78.889-15.606-108.872-44.237-27.484-26.296-41.288-54.477-47.555-97.116-3.154-21.504-3.154-511.549 0-533.053 5.939-40.223 17.285-65.004 41.697-91.136 26.255-28.058 55.46-42.598 98.345-48.906 21.504-3.154 511.549-3.154 533.053 0 40.632 5.98 67.011 18.309 93.266 43.663 26.501 25.559 40.632 54.682 46.776 96.379 3.154 21.504 3.154 511.549 0 533.053-6.308 42.885-20.849 72.090-48.906 98.345-25.231 23.593-48.579 34.611-88.023 41.533-13.025 2.294-488.776 3.645-519.782 1.475zM780.001 772.076c20.644-5.693 40.673-21.791 50.012-40.182 8.97-17.695 8.806-13.025 8.806-283.894s0.164-266.199-8.806-283.894c-5.98-11.796-20.89-26.952-32.645-33.219-18.719-9.994-11.059-9.708-285.368-9.708s-266.65-0.287-285.368 9.708c-11.715 6.226-26.665 21.422-32.522 33.055-9.216 18.227-8.929 8.888-8.929 284.058s-0.287 265.83 8.929 284.058c5.857 11.633 20.849 26.829 32.522 33.014 9.257 4.915 21.996 8.192 37.069 9.503 48.815 0.306 106.54 0.48 164.305 0.48 32.525 0 65.038-0.055 97.538-0.165l-5.023 0.013c218.071-0.205 251.249-0.573 259.482-2.826zM331.284 691.18c-5.136-1.858-9.55-4.559-13.303-7.975l0.032 0.028c-14.131-13.681-14.295-46.121-0.287-60.58 9.912-10.24 14.664-10.813 87.9-10.813h65.413v-188.293c0-208.282-0.41-199.885 10.813-210.78 14.295-13.885 45.998-13.885 60.293 0 11.223 10.895 10.813 2.499 10.813 210.78v188.293h65.454c72.663 0 77.292 0.573 87.572 10.527 14.254 13.804 14.254 47.063 0 60.867-11.223 10.895-4.588 10.527-194.683 10.404-140.902-0.082-173.916-0.532-180.019-2.458z" />
<glyph unicode="mail" glyph-name="mail" data-tags="mail" d="M220.897 814.92c-48.906-3.4-78.889-15.606-108.872-44.237-24.856-23.392-41.749-54.998-46.328-90.463l-0.080-0.755c-0.682-5.555-1.745-10.535-3.197-15.346l0.166 0.641c-2.785-8.356-0.86-427.213 2.048-444.621 6.595-39.608 17.736-63.365 41.533-88.842 26.255-28.058 55.46-42.598 98.345-48.906 21.545-3.154 593.428-3.154 614.973 0 41.697 6.144 70.82 20.275 96.379 46.776 24.699 25.6 36.823 50.954 43.54 90.972 2.376 14.377 4.833 434.422 2.58 441.18-1.203 4.249-2.265 9.452-2.967 14.769l-0.064 0.591c-5.571 39.24-21.012 69.673-48.333 95.232-25.19 23.593-48.456 34.529-88.023 41.533-12.943 2.294-570.245 3.645-601.702 1.475zM820.961 731.116c5.202-1.434 13.435-4.792 18.35-7.455 16.876-9.175 35.471-33.096 36.618-47.104 0.451-5.407-0.942-6.431-165.11-121.446-91.054-63.775-170.721-119.030-177.029-122.798-9.994-5.98-12.78-6.84-21.791-6.84s-11.796 0.86-21.791 6.84c-6.308 3.768-85.975 59.023-177.029 122.798-164.168 115.016-165.56 116.040-165.11 121.446 1.188 14.377 20.070 38.257 37.601 47.555 9.257 4.915 22.036 8.192 37.069 9.503 3.727 0.328 137.748 0.492 297.779 0.369 255.181-0.246 292.168-0.573 300.442-2.867zM296.305 467.169c2.687-3.531 50.809-37.276 99.142-70.737l48.601-31.827c23.306-14.746 42.762-20.644 67.953-20.644s44.646 5.898 67.953 20.644c9.544 6.021 270.377 187.965 292.659 204.145l8.192 5.939-0.655-171.295c-0.492-128.082-1.229-173.67-2.785-180.675-4.628-20.521-21.586-42.148-40.509-51.773-17.859-9.011-9.871-8.806-324.854-8.806s-306.995-0.205-324.854 8.806c-11.387 5.775-26.706 20.603-32.727 31.662-10.322 18.924-9.953 12.083-10.609 199.926l-0.614 172.155 8.192-5.939c4.506-3.277 69.714-48.988 144.916-101.581z" />
<glyph unicode="link" glyph-name="link" data-tags="link" d="M662.036 865.915c-42.598-3.768-90.112-22.282-124.969-48.701-16.712-12.698-86.18-82.207-91.791-91.873-8.724-15.073-5.612-30.556 9.134-45.261 14.172-14.172 29.245-17.654 44.032-10.199 4.751 2.417 22.364 18.473 46.858 42.68 25.6 25.313 43.377 41.492 51.2 46.49 60.785 38.953 139.428 34.365 193.823-11.387 36.269-30.222 59.184-75.406 59.184-125.942 0-33.196-9.888-64.083-26.878-89.877l0.381 0.615c-4.956-7.741-21.258-25.723-46.449-51.2-23.921-24.207-40.264-42.148-42.639-46.817-7.537-14.746-4.055-29.819 10.158-44.032 14.705-14.746 30.188-17.859 45.261-9.134 9.667 5.612 79.176 75.080 91.873 91.791 26.752 35.547 44.396 79.343 48.712 126.987l0.071 0.972c0.568 6.26 0.892 13.54 0.892 20.896 0 115.785-80.231 212.831-188.131 238.578l-1.669 0.336c-13.517 3.154-49.93 7.332-59.269 6.758-1.884-0.123-10.772-0.86-19.784-1.679zM640.86 630.641c-9.871-4.915-308.716-304.21-312.279-312.73-5.775-13.967-2.499-26.829 10.24-40.468 13.517-14.459 28.467-18.883 43.090-12.861 8.724 3.645 307.937 302.449 312.73 312.402 2.038 4.227 3.229 9.191 3.229 14.434 0 5.31-1.222 10.334-3.399 14.808l0.088-0.201c-4.178 8.561-18.145 22.118-26.378 25.559-3.723 1.474-8.037 2.329-12.551 2.329-5.361 0-10.441-1.206-14.982-3.362l0.212 0.091zM234.66 514.724c-10.854-6.308-80.609-76.595-93.266-94.044-28.344-38.953-43.581-79.708-47.432-126.689-0.539-6.084-0.847-13.161-0.847-20.311 0-67.519 27.425-128.633 71.742-172.809l0.006-0.006c44.128-44.328 105.197-71.758 172.672-71.758 7.185 0 14.298 0.311 21.326 0.92l-0.913-0.064c51.842 4.028 98.424 23.768 135.714 54.404l-0.423-0.337c18.514 14.991 84.173 82.084 87.572 89.457 6.185 13.476 2.048 29.164-11.223 42.435-14.213 14.213-29.286 17.695-44.032 10.158-4.669-2.376-22.61-18.719-46.817-42.639-25.477-25.19-43.459-41.492-51.2-46.449-25.137-16.602-55.981-26.486-89.133-26.486-17.537 0-34.429 2.766-50.262 7.885l1.155-0.323c-92.406 29-139.96 132.833-101.335 221.307 10.117 23.101 19.087 34.488 60.211 76.186 23.757 24.084 40.796 42.762 42.68 46.776 6.595 14.213 2.744 29.573-10.936 43.254-14.705 14.746-30.188 17.859-45.261 9.134z" />
<glyph unicode="info" glyph-name="info" data-tags="info" d="M472.883 896.676c-37.601-3.359-81.879-13.271-117.268-26.296-9.257-3.4-29.123-12.247-44.155-19.62-88.333-43.99-158.23-113.888-201.063-199.66l-1.157-2.559c-28.467-57.836-41.738-107.151-46.49-172.81-4.26-59.064 5.53-126.034 26.87-184.115 9.257-25.19 31.416-68.936 46.121-91.095 34.376-51.498 77.28-94.402 127.124-127.737l1.654-1.041c22.159-14.705 65.905-36.864 91.095-46.121 58.040-21.34 124.969-31.13 184.115-26.87 65.004 4.628 115.302 18.186 172.81 46.49 72.37 36.218 131.717 89.014 174.69 153.636l1.028 1.644c14.705 22.159 36.864 65.905 46.121 91.095 21.34 58.040 31.13 124.969 26.87 184.115-4.628 65.004-18.186 115.302-46.49 172.81-36.144 72.416-88.957 131.78-153.633 174.691l-1.646 1.027c-22.159 14.705-65.905 36.864-91.095 46.121-47.012 17.617-101.341 27.814-158.051 27.814-13.182 0-26.235-0.551-39.138-1.631l1.687 0.114zM549.192 814.838c189.276-20.439 331.448-177.807 331.448-366.838 0-203.284-165.356-368.64-368.64-368.64s-368.64 165.356-368.64 368.64c0 125.297 63.078 240.845 169.411 310.231 45.507 29.737 103.465 50.217 159.99 56.525 11.596 1.024 25.087 1.608 38.714 1.608 13.276 0 26.422-0.554 39.417-1.641l-1.7 0.114zM495.124 650.22c-14.95-4.628-24.084-19.21-24.084-38.42 0-19.374 9.257-33.874 24.576-38.42 22.487-6.676 44.442 0.205 53.494 16.753 4.26 7.782 4.26 35.635 0 43.418-9.011 16.466-31.949 23.552-53.985 16.671zM495.124 486.38c-5.136-1.858-9.55-4.559-13.303-7.975l0.032 0.028c-10.609-10.281-10.813-12.329-10.813-112.353 0-99.983 0.205-102.072 10.813-112.353 14.295-13.885 45.998-13.885 60.293 0 10.609 10.281 10.813 12.37 10.813 112.353s-0.205 102.072-10.813 112.353c-10.035 9.748-30.31 13.189-47.022 7.946z" />
<glyph unicode="heading" glyph-name="heading" data-tags="heading" d="M261.857 855.88c-48.947-3.441-78.889-15.606-108.872-44.237-27.484-26.296-41.288-54.477-47.555-97.116-3.154-21.504-3.154-511.549 0-533.053 5.939-40.223 17.285-65.004 41.697-91.136 26.255-28.058 55.46-42.598 98.345-48.906 21.504-3.154 511.549-3.154 533.053 0 40.632 5.98 67.011 18.309 93.266 43.663 26.501 25.559 40.632 54.682 46.776 96.379 3.154 21.504 3.154 511.549 0 533.053-6.308 42.885-20.849 72.090-48.906 98.345-25.231 23.593-48.579 34.611-88.023 41.533-13.025 2.294-488.776 3.645-519.782 1.475zM780.001 772.076c20.644-5.693 40.673-21.791 50.012-40.182 8.97-17.695 8.806-13.025 8.806-283.894s0.164-266.199-8.806-283.894c-5.98-11.796-20.89-26.952-32.645-33.219-18.719-9.994-11.059-9.708-285.368-9.708s-266.65-0.287-285.368 9.708c-11.715 6.226-26.665 21.422-32.522 33.055-9.216 18.227-8.929 8.888-8.929 284.058s-0.287 265.83 8.929 284.058c5.857 11.633 20.849 26.829 32.522 33.014 9.257 4.915 21.996 8.192 37.069 9.503 48.815 0.306 106.54 0.48 164.305 0.48 32.525 0 65.038-0.055 97.538-0.165l-5.023 0.013c218.071-0.205 251.249-0.573 259.482-2.826zM331.284 691.18c-5.136-1.858-9.55-4.559-13.303-7.975l0.032 0.028c-11.305-10.936-10.813 0.041-10.813-235.274 0-234.25-0.492-223.56 10.527-234.906 13.804-14.254 47.063-14.254 60.867 0 10.281 10.609 10.527 13.025 10.527 108.052v85.934h245.76v-85.934c0-95.027 0.246-97.444 10.527-108.052 13.681-14.131 46.162-14.295 60.58-0.287 11.305 10.936 10.813 0 10.813 235.233s0.492 224.297-10.813 235.233c-14.418 14.008-46.899 13.844-60.58-0.287-10.281-10.609-10.527-13.025-10.527-108.052v-85.934h-245.76v85.893c0 95.642-0.246 98.14-10.813 108.38-10.035 9.748-30.31 13.189-47.022 7.946z" />
<glyph unicode="hash" glyph-name="hash" data-tags="hash" d="M389.775 854.446c-8.020-4.309-14.155-11.253-17.324-19.652l-0.084-0.255c-1.475-3.85-31.048-176.128-31.048-180.838 0-0.492-41.697-0.901-92.692-0.901-103.137 0-104.899-0.164-115.22-10.813-14.008-14.418-13.844-46.899 0.287-60.58 10.609-10.281 13.025-10.527 108.093-10.527h85.975l-0.901-3.85c-0.942-4.055-40.141-239.452-40.141-241.009 0-0.492-38.666-0.901-85.934-0.901-95.027 0-97.444-0.246-108.052-10.527-14.254-13.804-14.254-47.063 0-60.867 10.486-10.199 13.681-10.527 101.294-10.527h79.094l-0.86-3.85c-3.236-13.967-26.501-159.539-26.46-165.478 0.082-20.275 14.705-32.973 40.182-34.98 19.046-1.475 31.662 5.98 37.97 22.528 1.475 3.891 31.048 176.169 31.048 180.879 0 0.492 55.296 0.901 122.88 0.901h122.921l-0.86-3.85c-3.236-13.967-26.501-159.539-26.46-165.478 0.082-20.275 14.705-32.973 40.182-34.98 19.046-1.475 31.662 5.98 37.97 22.528 1.475 3.891 31.048 176.169 31.048 180.879 0 0.492 32.481 0.901 72.212 0.901 80.691 0 84.705 0.451 94.74 10.813 14.008 14.418 13.844 46.899-0.287 60.58-10.281 9.953-14.909 10.527-87.613 10.527h-65.495l0.901 3.85c0.942 4.055 40.141 239.452 40.141 241.009 0 0.492 29.45 0.901 65.454 0.901 72.663 0 77.292 0.573 87.572 10.527 14.254 13.804 14.254 47.063 0 60.867-10.117 9.83-15.524 10.527-80.814 10.527h-58.614l0.86 3.85c3.236 13.967 26.501 159.539 26.46 165.478-0.082 20.275-14.705 32.973-40.182 34.98-19.046 1.475-31.662-5.98-37.97-22.569-1.475-3.85-31.048-176.128-31.048-180.838 0-0.492-55.296-0.901-122.88-0.901h-122.921l0.86 3.85c3.236 13.967 26.501 159.539 26.46 165.478-0.082 20.603-14.95 33.26-40.919 34.857-10.281 0.614-14.172 0.123-19.825-2.54zM654.541 567.030c-0.942-4.055-40.141-239.452-40.141-241.009 0-0.492-55.296-0.901-122.921-0.901h-122.921l0.901 3.85c0.942 4.055 40.141 239.452 40.141 241.009 0 0.492 55.296 0.901 122.921 0.901h122.921l-0.901-3.85z" />
<glyph unicode="files" glyph-name="attachment" data-tags="attachment" d="M652.82 877.138c-28.672-5.325-55.214-16.712-77.865-33.341-9.871-7.25-69.878-65.946-193.249-189.071-98.427-98.222-187.515-187.802-198.001-199.107-29.532-31.867-48.701-63.119-60.662-99.082-8.127-24.094-12.817-51.842-12.817-80.686 0-29.075 4.765-57.037 13.558-83.147l-0.536 1.836c26.337-77.373 85.361-135.823 163.471-161.874 29.573-9.83 66.191-14.008 99.164-11.305 50.627 4.137 93.716 20.603 135.496 51.773 16.343 12.165 392.151 386.621 401.203 399.688 7.127 10.322 8.765 18.514 5.816 29.082-2.662 9.462-16.056 24.863-26.255 30.147-4.561 2.203-9.918 3.491-15.576 3.491-5.238 0-10.219-1.104-14.722-3.091l0.234 0.092c-3.277-1.638-93.88-90.726-201.359-197.96-148.726-148.357-198.328-196.813-207.544-202.875-17.49-11.428-34.98-19.251-54.436-24.453-14.5-3.85-20.808-4.547-41.82-4.669-28.59-0.205-42.598 2.376-67.461 12.534-42.975 18.261-76.497 51.796-94.305 93.629l-0.436 1.152c-9.708 23.798-12.739 39.977-12.575 67.42 0.123 26.911 3.604 43.704 13.926 67.707 13.476 31.252 8.888 26.296 220.488 238.060l197.222 197.386 14.5 6.84c17.367 8.151 27.894 10.568 46.653 10.568 16.548 0 30.188-3.154 45.507-10.527 15.483-7.455 38.011-30.31 45.834-46.49 14.008-29.041 13.722-61.522-0.778-91.464-6.021-12.411-11.796-18.432-191.611-198.574-108.954-109.199-187.638-186.778-190.874-188.17-25.108-10.895-50.995 13.967-41.329 39.731 0.983 2.703 73.359 76.472 164.536 167.813 161.137 161.341 162.816 163.062 165.56 172.605 4.055 14.295 0.328 25.477-12.943 38.584-16.179 15.974-31.58 18.145-48.087 6.717-4.915-3.4-81.51-78.971-170.23-167.936-172.851-173.261-169.615-169.738-177.644-195.052-4.915-15.401-6.103-43.008-2.58-59.515 4.506-21.176 13.189-36.372 30.884-54.026 17.777-17.777 33.014-26.501 53.821-30.884 16.957-3.523 44.442-2.376 59.72 2.54 25.723 8.274 19.497 2.499 222.904 205.824 202.711 202.588 200.335 200.049 214.016 230.482 36.741 81.797 9.216 179.159-64.553 228.393-31.457 20.972-59.884 30.024-97.608 31.13-2.765 0.157-6 0.246-9.256 0.246-9.675 0-19.166-0.79-28.411-2.308l1.008 0.137z" />
<glyph unicode="eye" glyph-name="view" data-tags="view" d="M476.16 773.96c-107.233-11.182-201.318-59.72-292.782-150.979-41.042-40.96-91.177-107.028-108.093-142.459-5.98-12.493-6.144-13.476-6.144-32.522 0-19.087 0.164-19.988 6.267-32.768 3.441-7.209 14.090-24.74 23.634-38.871 85.606-127.017 201.687-216.105 318.259-244.163 35.185-8.479 56.156-10.895 94.7-10.895s59.515 2.417 94.74 10.895c118.292 28.508 235.725 119.521 322.028 249.528 7.537 11.387 16.507 26.542 19.907 33.669 6.021 12.575 6.226 13.558 6.226 32.604s-0.205 20.029-6.226 32.604c-16.916 35.471-66.601 100.925-108.052 142.418-84.705 84.787-174.572 133.775-272.302 148.357-21.668 3.236-72.212 4.669-92.16 2.58zM561.48 689.787c61.112-10.445 118.784-37.765 175.8-83.19 21.791-17.367 64.184-59.515 82.78-82.33 15.196-18.637 39.854-52.675 48.538-66.929l5.652-9.339-5.652-9.339c-20.439-33.669-53.903-75.366-87.777-109.322-70.492-70.615-143.196-110.92-223.601-123.945-7.619-1.229-27.566-2.212-45.22-2.212-53.494 0-93.102 9.257-142.5 33.3-44.974 21.873-84.378 50.831-126.28 92.856-33.915 33.956-67.379 75.653-87.818 109.322l-5.652 9.339 5.652 9.339c8.684 14.254 33.341 48.292 48.538 66.929 18.596 22.815 60.989 64.963 82.78 82.33 58.286 46.449 121.61 75.858 180.060 83.64l18.76 2.54c10.24 1.434 61.809-0.573 75.94-2.99zM489.513 610.12c-43.704-6.963-82.043-29.45-107.643-63.119-12.419-17.336-22.301-37.514-28.536-59.235l-0.341-1.386c-5.325-21.586-5.325-55.173 0-76.554 9.641-37.562 30.891-69.189 59.637-91.677l0.37-0.279c15.114-11.469 42.025-24.289 60.621-28.877 21.627-5.325 55.132-5.325 76.8 0 23.091 6.585 43.255 16.465 61.175 29.281l-0.595-0.405c29.115 22.767 50.366 54.393 59.751 90.787l0.256 1.168c5.325 21.381 5.325 54.968 0 76.554-6.575 23.107-16.457 43.285-29.281 61.215l0.404-0.594c-22.553 28.893-53.854 50.021-89.887 59.46l-1.167 0.26c-16.384 3.973-47.227 5.693-61.563 3.4zM533.381 527.258c26.296-6.84 51.118-31.662 57.917-57.876 1.794-6.329 2.825-13.599 2.825-21.109 0-23.286-9.914-44.256-25.751-58.92l-0.053-0.048c-16.957-16.179-34.079-23.224-56.32-23.224-28.221 0-54.19 14.623-70.205 39.608-15.032 23.429-15.442 58.941-0.983 82.985 6.472 10.691 21.094 25.149 31.99 31.498 16.056 9.38 40.714 12.288 60.58 7.086z" />
<glyph unicode="edit" glyph-name="edit" data-tags="edit" d="M757.187 906.998c-28.058-4.71-58.286-19.374-85.606-41.533-6.554-5.325-67.502-63.16-72.704-69.018l-141.804-142.787c-149.299-150.2-149.34-150.2-160.645-177.521-6.595-15.852-7.414-20.070-17.613-89.825-10.568-72.581-11.796-92.652-6.758-109.855 10.117-34.243 35.84-59.638 69.263-68.28 19.046-4.874 36.413-3.809 109.24 6.717 37.069 5.407 72.008 11.346 77.66 13.23 12.288 4.137 30.72 13.189 41.574 20.48 4.342 2.908 71.27 68.28 148.726 145.285 77.414 77.005 141.312 140.452 141.967 140.984 0.655 0.573 16.015 16.425 34.12 35.226 45.261 46.94 61.891 71.311 72.499 106.127 4.014 13.148 4.547 17.777 4.465 38.011-0.041 19.866-0.696 25.149-4.628 38.257-5.898 19.825-18.596 44.196-32.645 62.792-22.528 29.778-62.792 64.184-90.44 77.251-28.918 13.722-60.211 18.924-86.671 14.459zM349.88 897.372c-28.604-1.921-54.883-5.503-80.563-10.73l3.845 0.654c-56.115-12.042-98.345-33.669-132.588-67.871-42.189-42.189-64.594-94.74-75.162-176.005-2.826-21.75-3.113-39.444-3.113-195.42s0.287-173.67 3.113-195.42c10.568-81.265 32.973-133.816 75.162-176.005 42.107-42.107 94.863-64.635 176.005-75.162 21.75-2.826 39.444-3.113 195.42-3.113 155.484 0 173.752 0.287 195.42 3.072 80.568 10.404 133.898 33.219 175.923 75.284 41.124 41.083 63.816 92.815 74.26 169.083 2.867 20.931 3.686 38.38 4.465 95.355 1.065 79.094 0.573 84.255-9.257 95.109-13.64 15.155-47.35 15.77-61.44 1.188-9.667-10.035-9.667-9.953-10.854-89.252-0.614-40.346-2.048-79.913-3.154-87.859-16.097-115.589-62.915-161.997-179.323-177.848-23.388-3.195-348.692-3.195-372.081 0-117.064 15.933-163.553 62.423-179.528 179.528-3.195 23.388-3.195 348.692 0 372.081 15.892 116.613 62.054 163.185 177.848 179.323 7.987 1.106 47.432 2.54 87.9 3.154 79.258 1.188 79.176 1.188 89.211 10.854 14.090 13.558 13.967 46.94-0.205 60.662-10.199 9.912-15.401 10.568-81.183 10.199-32.481-0.164-64.020-0.573-70.124-0.86zM797.491 823.316c20.275-6.799 42.394-23.429 64.020-48.169 21.258-24.289 30.351-44.646 28.918-64.881-1.597-22.528-16.097-44.81-52.716-80.896l-15.933-15.729-17.326 8.274c-27.607 13.271-45.22 25.969-68.895 49.644-23.839 23.798-36.25 41.001-49.357 68.403l-8.561 17.777 15.729 15.974c47.104 47.8 72.909 60.088 104.12 49.603zM620.216 689.050c5.202-10.895 21.299-34.652 34.529-51.036 24.455-29.591 53.186-54.553 85.468-74.274l1.49-0.846c8.028-4.874 15.483-9.216 16.589-9.626 1.106-0.451-50.954-53.903-115.712-118.825-109.363-109.568-118.62-118.415-129.72-123.904-11.387-5.652-15.073-6.39-79.831-15.606-64.389-9.175-68.157-9.544-73.523-6.963-11.305 5.407-11.305 5.693-0.41 82.043 8.069 56.525 10.527 70.083 14.131 77.906 3.768 8.151 20.972 26.092 123.167 128.492 65.372 65.495 119.276 119.071 119.808 119.071s2.335-2.908 4.014-6.431z" />
<glyph unicode="dropdown" glyph-name="select" data-tags="select" d="M102.81 710.39l0.451-145.49 261.939-0.86 0.901-524.78h554.639l0.451 350.29 0.41 350.29h-117.76v116.040h-701.44l0.41-145.49zM745.8 768.84v-29h-380.559v-116.040h-203.121v174.080h583.68v-29.041zM861.88 389.96v-291.84h-436.92v583.68h436.92v-291.84zM483 564.040v-29h57.999v58.040h-57.999v-29.041zM599.409 564.49l0.492-28.59 203.94-0.901v58.081h-204.882l0.451-28.59zM483 389.96v-29h57.999v58.040h-57.999v-29.041zM599.040 389.96v-29h204.8v58.040h-204.8v-29.041zM483 214.2v-29.041h57.999v58.040h-57.999v-29zM599.040 214.2v-29.041h204.8v58.040h-204.8v-29z" />
<glyph unicode="docs" glyph-name="docs" data-tags="docs" d="M318.3 896.717c-50.258-3.564-87.204-13.353-116.367-30.884-12.82-7.7-31.498-25.149-40.755-38.175-21.34-29.86-32.399-68.362-36.536-127.058-2.417-34.243-2.376-521.667 0.041-541.082 10.465-83.971 76.305-149.812 159.378-160.185l0.899-0.092c19.907-2.458 434.176-2.458 454.083 0 24.153 2.906 46.068 10.211 65.713 21.109l-0.915-0.466c51.719 28.050 87.98 78.924 95.388 138.741l0.090 0.891c2.376 19.005 2.458 506.757 0.082 540.221-3.809 54.436-12.698 88.842-31.007 119.972-7.291 12.493-33.628 38.83-46.121 46.121-31.13 18.309-65.536 27.197-119.972 31.007-27.976 1.966-356.065 1.884-384-0.123zM728.392 812.626c57.917-9.83 77.005-28.877 86.794-86.794 2.662-15.729 3.031-35.594 3.564-188.621l0.614-171.049-281.272-0.532c-266.895-0.492-281.846-0.696-293.151-3.686-15.010-4.367-27.649-9.161-39.813-14.807l1.72 0.717c-1.802-0.819-2.089 32.031-1.556 180.552 0.614 159.171 1.024 183.583 3.523 197.796 10.158 58.286 30.188 77.947 87.695 86.098 27.935 3.932 21.545 3.85 224.010 3.564 172.605-0.246 191.939-0.532 207.872-3.236zM331.284 691.18c-14.95-4.628-24.084-19.21-24.084-38.42 0-19.374 9.257-33.874 24.576-38.42 12.575-3.727 347.873-3.768 360.243-0.041 15.606 4.71 24.781 18.964 24.781 38.502s-9.175 33.792-24.781 38.502c-11.837 3.564-349.266 3.482-360.735-0.123zM331.284 547.82c-14.95-4.628-24.084-19.21-24.084-38.42 0-19.374 9.257-33.874 24.576-38.42 12.575-3.727 224.993-3.727 237.568 0 15.319 4.547 24.576 19.046 24.576 38.461s-9.257 33.915-24.576 38.461c-12.042 3.564-226.55 3.523-238.060-0.082zM819.159 227.43c-0.041-63.201-0.942-71.311-10.445-91.054-7.905-16.384-30.147-38.625-46.531-46.531-22.487-10.813-13.025-10.445-250.184-10.445s-227.697-0.369-250.184 10.445c-8.684 4.178-15.606 9.503-26.296 20.234-23.839 23.798-30.638 42.312-30.679 83.681-0.041 34.529 4.547 48.824 21.504 66.601 5.038 5.284 12.902 11.633 17.449 14.131 18.268 9.912 2.703 9.421 301.056 9.544l274.35 0.123-0.041-56.73z" />
<glyph unicode="date" glyph-name="calendar" data-tags="calendar" d="M331.284 895.98c-5.136-1.858-9.55-4.559-13.303-7.975l0.032 0.028c-8.561-8.274-10.813-18.104-10.813-46.735v-24.207l-26.010-1.229c-65.536-2.99-94.904-13.353-128.205-45.179-27.484-26.296-41.288-54.477-47.555-97.116-3.154-21.504-3.154-511.549 0-533.053 5.939-40.223 17.285-65.004 41.697-91.136 26.255-28.058 55.46-42.598 98.345-48.906 21.504-3.154 511.549-3.154 533.053 0 40.632 5.98 67.011 18.309 93.266 43.663 26.501 25.559 40.632 54.682 46.776 96.379 3.154 21.504 3.154 511.549 0 533.053-6.308 42.885-20.849 72.090-48.906 98.345-33.137 30.966-61.972 41.001-126.853 43.95l-26.010 1.229v24.207c0 28.631-2.294 38.461-10.813 46.735-14.418 14.008-46.899 13.844-60.58-0.287-8.356-8.602-10.527-18.268-10.527-46.612v-24.494h-245.76v24.453c0 28.836-2.253 38.666-10.813 46.94-10.035 9.748-30.31 13.189-47.022 7.946zM307.2 710.226c0-28.344 2.171-38.011 10.527-46.612 13.681-14.131 46.162-14.295 60.58-0.287 8.561 8.274 10.813 18.104 10.813 46.94v24.453h245.76v-24.453c0-28.836 2.253-38.666 10.813-46.94 14.295-13.885 45.998-13.885 60.293 0 8.561 8.315 10.813 18.063 10.813 47.227v24.699l26.010-1.024c30.761-1.229 41.411-3.195 54.559-10.117 11.674-6.185 26.624-21.34 32.563-33.055 6.84-13.476 8.356-25.764 9.298-74.506l0.86-45.67h-656.22l0.942 47.35c0.614 32.072 1.72 50.422 3.318 56.812 3.482 13.763 10.772 26.010 21.709 36.454 18.801 17.9 33.71 22.241 79.012 22.938l18.35 0.287v-24.494zM839.188 319.59c-0.492-126.566-1.229-171.786-2.785-178.79-4.628-20.521-21.586-42.148-40.509-51.773-17.695-8.97-13.025-8.806-283.894-8.806s-266.199-0.164-283.894 8.806c-11.387 5.775-26.706 20.603-32.727 31.662-10.281 18.924-9.953 12.247-10.609 198.042l-0.614 170.23h655.688l-0.655-169.37zM501.76 447.508c-3.277-1.229-23.47-13.967-44.851-28.303-41.984-28.14-46.981-32.973-48.579-46.899-1.065-9.503 1.679-18.35 9.216-29.532 11.715-17.49 26.87-23.020 44.524-16.261l8.97 3.4v-86.712h-9.134c-26.788 0-42.066-14.868-42.066-40.96 0-19.538 9.175-33.792 24.781-38.502 11.919-3.564 122.839-3.564 134.758 0 15.606 4.71 24.781 18.964 24.781 38.502 0 26.092-15.278 40.96-42.066 40.96h-9.134l-0.082 84.91c-0.082 91.464-0.041 91.177-9.257 104.489-9.912 14.254-27.156 20.398-41.861 14.909z" />
<glyph unicode="copy" glyph-name="copy" data-tags="copy" d="M181.78 897.454c-29.164-2.499-47.555-8.151-65.577-20.152-27.648-18.35-45.425-45.752-51.569-79.421-3.441-18.883-3.441-435.118 0-454.001 9.052-49.684 44.278-86.221 93.225-96.748 9.052-1.925 28.672-2.744 80.445-3.441l68.526-0.86 0.86-68.526c0.696-51.773 1.516-71.393 3.441-80.445 10.527-48.947 47.063-84.173 96.748-93.225 18.883-3.441 435.118-3.441 454.001 0 51.241 9.339 88.146 46.244 97.485 97.485 3.441 18.883 3.441 435.118 0 454.001-9.052 49.684-44.278 86.221-93.225 96.748-9.052 1.925-28.672 2.744-80.445 3.441l-68.526 0.86-0.86 68.526c-0.942 72.049-1.884 81.879-9.626 101.458-10.936 27.689-37.478 54.313-65.004 65.208-23.716 9.339-16.179 9.052-243.18 9.38-115.466 0.164-212.992 0.041-216.719-0.287zM611 813.036c8.602-3.932 19.988-16.998 21.627-24.822 1.843-8.602 1.802-426.107 0-434.708-1.761-8.315-14.459-22.282-23.060-25.313-4.997-1.761-49.316-2.212-220.447-2.212s-215.45 0.451-220.447 2.212c-8.602 3.031-21.299 16.998-23.060 25.313-0.778 3.645-1.393 102.236-1.393 219.095 0 169.738 0.451 213.729 2.212 218.726 3.154 8.888 17.080 21.381 25.313 22.733 3.645 0.614 7.741 1.352 9.175 1.679 1.393 0.287 97.403 0.451 213.32 0.287 189.358-0.205 211.395-0.532 216.76-2.99zM856.76 567.276c8.602-3.932 19.988-16.957 21.627-24.822 0.778-3.604 1.393-102.195 1.393-219.054 0-169.738-0.451-213.729-2.212-218.726-3.031-8.602-16.998-21.299-25.313-23.060-8.602-1.802-426.107-1.843-434.708 0-7.864 1.638-20.89 13.025-24.822 21.627-2.294 5.079-2.785 16.138-3.277 72.827l-0.573 66.888 109.773 0.737c117.187 0.819 121.16 1.065 143.032 9.708 27.525 10.895 54.067 37.519 65.004 65.208 8.52 21.545 8.806 25.805 9.626 142.746l0.737 109.773 66.888-0.573c56.689-0.492 67.748-0.983 72.827-3.277z" />
<glyph unicode="checkbox" glyph-name="checkbox" data-tags="checkbox" d="M295.24 825.037c-3.277-1.966-29.532-27.075-58.368-55.828l-52.429-52.265-12.411 12.042c-14.008 13.558-20.808 17.695-29.123 17.695-13.271 0-31.99-19.005-31.99-32.44 0-9.339 7.045-18.678 34.406-45.466 27.771-27.279 32.973-30.228 46.244-26.337 6.226 1.843 16.916 11.756 74.301 68.977 70.697 70.451 75.121 75.776 73.196 87.654-1.434 8.765-8.643 18.678-17.777 24.494-9.503 6.021-17.613 6.472-26.051 1.475zM454.164 752.62c-14.95-4.628-24.084-19.21-24.084-38.42 0-19.374 9.257-33.874 24.576-38.42 12.616-3.727 429.752-3.768 442.163-0.041 15.606 4.71 24.781 18.964 24.781 38.502s-9.175 33.792-24.781 38.502c-11.878 3.564-431.145 3.482-442.655-0.123zM295.24 538.317c-3.277-1.966-29.532-27.075-58.368-55.828l-52.429-52.265-12.411 12.042c-14.008 13.558-20.808 17.695-29.123 17.695-13.271 0-31.99-19.005-31.99-32.44 0-9.339 7.045-18.678 34.406-45.466 27.771-27.279 32.973-30.228 46.244-26.337 6.226 1.843 16.916 11.756 74.301 68.977 70.697 70.451 75.121 75.776 73.196 87.654-1.434 8.765-8.643 18.678-17.777 24.494-9.503 6.021-17.613 6.472-26.051 1.475zM454.164 465.9c-14.95-4.628-24.084-19.21-24.084-38.42 0-19.374 9.257-33.874 24.576-38.42 12.616-3.727 429.752-3.768 442.163-0.041 15.606 4.71 24.781 18.964 24.781 38.502s-9.175 33.792-24.781 38.502c-11.878 3.564-431.145 3.482-442.655-0.123zM295.24 251.597c-3.277-1.966-29.532-27.075-58.368-55.828l-52.429-52.265-12.411 12.042c-14.008 13.558-20.808 17.695-29.123 17.695-13.271 0-31.99-19.005-31.99-32.44 0-9.339 7.045-18.678 34.406-45.466 27.771-27.279 32.973-30.228 46.244-26.337 6.226 1.843 16.916 11.756 74.301 68.977 70.697 70.451 75.121 75.776 73.196 87.654-1.434 8.765-8.643 18.678-17.777 24.494-9.503 6.021-17.613 6.472-26.051 1.475zM454.164 179.18c-14.95-4.628-24.084-19.21-24.084-38.42 0-19.374 9.257-33.874 24.576-38.42 12.616-3.727 429.752-3.768 442.163-0.041 15.606 4.71 24.781 18.964 24.781 38.502s-9.175 33.792-24.781 38.502c-11.878 3.564-431.145 3.482-442.655-0.123z" />
<glyph unicode="calendar" glyph-name="calendar" data-tags="calendar" d="M331.284 895.98c-5.136-1.858-9.55-4.559-13.303-7.975l0.032 0.028c-8.561-8.274-10.813-18.104-10.813-46.735v-24.207l-26.010-1.229c-65.536-2.99-94.904-13.353-128.205-45.179-27.484-26.296-41.288-54.477-47.555-97.116-3.154-21.504-3.154-511.549 0-533.053 5.939-40.223 17.285-65.004 41.697-91.136 26.255-28.058 55.46-42.598 98.345-48.906 21.504-3.154 511.549-3.154 533.053 0 40.632 5.98 67.011 18.309 93.266 43.663 26.501 25.559 40.632 54.682 46.776 96.379 3.154 21.504 3.154 511.549 0 533.053-6.308 42.885-20.849 72.090-48.906 98.345-33.137 30.966-61.972 41.001-126.853 43.95l-26.010 1.229v24.207c0 28.631-2.294 38.461-10.813 46.735-14.418 14.008-46.899 13.844-60.58-0.287-8.356-8.602-10.527-18.268-10.527-46.612v-24.494h-245.76v24.453c0 28.836-2.253 38.666-10.813 46.94-10.035 9.748-30.31 13.189-47.022 7.946zM307.2 710.226c0-28.344 2.171-38.011 10.527-46.612 13.681-14.131 46.162-14.295 60.58-0.287 8.561 8.274 10.813 18.104 10.813 46.94v24.453h245.76v-24.453c0-28.836 2.253-38.666 10.813-46.94 14.295-13.885 45.998-13.885 60.293 0 8.561 8.315 10.813 18.063 10.813 47.227v24.699l26.010-1.024c30.761-1.229 41.411-3.195 54.559-10.117 11.674-6.185 26.624-21.34 32.563-33.055 6.84-13.476 8.356-25.764 9.298-74.506l0.86-45.67h-656.22l0.942 47.35c0.614 32.072 1.72 50.422 3.318 56.812 3.482 13.763 10.772 26.010 21.709 36.454 18.801 17.9 33.71 22.241 79.012 22.938l18.35 0.287v-24.494zM839.188 319.59c-0.492-126.566-1.229-171.786-2.785-178.79-4.628-20.521-21.586-42.148-40.509-51.773-17.695-8.97-13.025-8.806-283.894-8.806s-266.199-0.164-283.894 8.806c-11.387 5.775-26.706 20.603-32.727 31.662-10.281 18.924-9.953 12.247-10.609 198.042l-0.614 170.23h655.688l-0.655-169.37zM501.76 447.508c-3.277-1.229-23.47-13.967-44.851-28.303-41.984-28.14-46.981-32.973-48.579-46.899-1.065-9.503 1.679-18.35 9.216-29.532 11.715-17.49 26.87-23.020 44.524-16.261l8.97 3.4v-86.712h-9.134c-26.788 0-42.066-14.868-42.066-40.96 0-19.538 9.175-33.792 24.781-38.502 11.919-3.564 122.839-3.564 134.758 0 15.606 4.71 24.781 18.964 24.781 38.502 0 26.092-15.278 40.96-42.066 40.96h-9.134l-0.082 84.91c-0.082 91.464-0.041 91.177-9.257 104.489-9.912 14.254-27.156 20.398-41.861 14.909z" />
<glyph unicode="books" glyph-name="docs" data-tags="docs" d="M318.3 896.717c-50.258-3.564-87.204-13.353-116.367-30.884-12.82-7.7-31.498-25.149-40.755-38.175-21.34-29.86-32.399-68.362-36.536-127.058-2.417-34.243-2.376-521.667 0.041-541.082 10.465-83.971 76.305-149.812 159.378-160.185l0.899-0.092c19.907-2.458 434.176-2.458 454.083 0 24.153 2.906 46.068 10.211 65.713 21.109l-0.915-0.466c51.719 28.050 87.98 78.924 95.388 138.741l0.090 0.891c2.376 19.005 2.458 506.757 0.082 540.221-3.809 54.436-12.698 88.842-31.007 119.972-7.291 12.493-33.628 38.83-46.121 46.121-31.13 18.309-65.536 27.197-119.972 31.007-27.976 1.966-356.065 1.884-384-0.123zM728.392 812.626c57.917-9.83 77.005-28.877 86.794-86.794 2.662-15.729 3.031-35.594 3.564-188.621l0.614-171.049-281.272-0.532c-266.895-0.492-281.846-0.696-293.151-3.686-15.010-4.367-27.649-9.161-39.813-14.807l1.72 0.717c-1.802-0.819-2.089 32.031-1.556 180.552 0.614 159.171 1.024 183.583 3.523 197.796 10.158 58.286 30.188 77.947 87.695 86.098 27.935 3.932 21.545 3.85 224.010 3.564 172.605-0.246 191.939-0.532 207.872-3.236zM331.284 691.18c-14.95-4.628-24.084-19.21-24.084-38.42 0-19.374 9.257-33.874 24.576-38.42 12.575-3.727 347.873-3.768 360.243-0.041 15.606 4.71 24.781 18.964 24.781 38.502s-9.175 33.792-24.781 38.502c-11.837 3.564-349.266 3.482-360.735-0.123zM331.284 547.82c-14.95-4.628-24.084-19.21-24.084-38.42 0-19.374 9.257-33.874 24.576-38.42 12.575-3.727 224.993-3.727 237.568 0 15.319 4.547 24.576 19.046 24.576 38.461s-9.257 33.915-24.576 38.461c-12.042 3.564-226.55 3.523-238.060-0.082zM819.159 227.43c-0.041-63.201-0.942-71.311-10.445-91.054-7.905-16.384-30.147-38.625-46.531-46.531-22.487-10.813-13.025-10.445-250.184-10.445s-227.697-0.369-250.184 10.445c-8.684 4.178-15.606 9.503-26.296 20.234-23.839 23.798-30.638 42.312-30.679 83.681-0.041 34.529 4.547 48.824 21.504 66.601 5.038 5.284 12.902 11.633 17.449 14.131 18.268 9.912 2.703 9.421 301.056 9.544l274.35 0.123-0.041-56.73z" />
</font>
</defs>
</svg>
