<svg width="194" height="50" viewBox="0 0 194 50" fill="none" xmlns="http://www.w3.org/2000/svg">
<path d="M33.9024 16.0976H0V50L33.9024 16.0976Z" fill="white" fill-opacity="0.6"/>
<path d="M0 0V50L33.9024 0H0Z" fill="white" fill-opacity="0.6"/>
<path d="M47.7093 42.4497C46.5698 42.4497 46 41.8393 46 40.6186V9.27054C46 8.04982 46.5698 7.43946 47.7093 7.43946H67.0241C68.245 7.43946 68.8555 7.96844 68.8555 9.0264V11.9073C68.8555 12.9653 68.245 13.4942 67.0241 13.4942H53.1301V21.9904H65.0218C66.2427 21.9904 66.8532 22.5194 66.8532 23.5774V26.4583C66.8532 27.5162 66.2427 28.0452 65.0218 28.0452H53.1301V40.6186C53.1301 41.8393 52.5604 42.4497 51.4209 42.4497H47.7093Z" fill="white"/>
<path d="M72.7624 29.6321C72.7624 25.4817 73.8287 22.2264 75.9612 19.8664C78.11 17.5063 81.3007 16.3263 85.5332 16.3263C89.7657 16.3263 92.9482 17.5063 95.0807 19.8664C97.2295 22.2264 98.3039 25.4817 98.3039 29.6321C98.3039 33.7826 97.2295 37.0378 95.0807 39.3979C92.9482 41.758 89.7657 42.938 85.5332 42.938C81.3007 42.938 78.11 41.758 75.9612 39.3979C73.8287 37.0378 72.7624 33.7826 72.7624 29.6321ZM79.9902 29.6321C79.9902 32.7246 80.4623 34.9219 81.4065 36.224C82.3669 37.5099 83.7425 38.1528 85.5332 38.1528C87.3238 38.1528 88.6913 37.5099 89.6354 36.224C90.5959 34.9219 91.0761 32.7246 91.0761 29.6321C91.0761 26.5397 90.5959 24.3505 89.6354 23.0647C88.6913 21.7626 87.3238 21.1115 85.5332 21.1115C83.7425 21.1115 82.3669 21.7626 81.4065 23.0647C80.4623 24.3505 79.9902 26.5397 79.9902 29.6321Z" fill="white"/>
<path d="M105.043 42.4497C104.067 42.4497 103.578 41.9614 103.578 40.9848V18.2795C103.578 17.3029 104.067 16.8146 105.043 16.8146H108.901C109.878 16.8146 110.367 17.3029 110.367 18.2795V20.2814H110.464C110.887 19.2398 111.596 18.3201 112.589 17.5226C113.582 16.7251 114.754 16.3263 116.105 16.3263C117.033 16.3263 117.798 16.4402 118.4 16.6681C118.97 16.8797 119.19 17.2703 119.059 17.84L118.376 20.7453C118.229 21.3964 117.79 21.5917 117.057 21.3313C116.634 21.1848 116.227 21.1115 115.836 21.1115C114.273 21.1115 112.979 22.0474 111.954 23.9192C110.928 25.7909 110.415 28.5172 110.415 32.098V40.9848C110.415 41.9614 109.927 42.4497 108.95 42.4497H105.043Z" fill="white"/>
<path d="M124.236 42.4497C123.259 42.4497 122.771 41.9614 122.771 40.9848V18.2795C122.771 17.3029 123.259 16.8146 124.236 16.8146H128.094C129.071 16.8146 129.559 17.3029 129.559 18.2795V19.6955H129.657C130.129 18.6538 130.927 17.8319 132.05 17.2296C133.173 16.6274 134.223 16.3263 135.2 16.3263C137.153 16.3263 138.667 16.782 139.742 17.6935C140.832 18.605 141.581 19.6222 141.988 20.7453H142.086C143.502 18.9061 144.78 17.7098 145.92 17.1564C147.075 16.603 148.549 16.3263 150.339 16.3263C152.749 16.3263 154.775 17.1238 156.419 18.7189C158.08 20.314 158.91 23.2274 158.91 27.4593V40.9848C158.91 41.9614 158.422 42.4497 157.445 42.4497H153.538C152.561 42.4497 152.073 41.9614 152.073 40.9848V29.2171C152.073 25.6689 151.829 23.4309 151.34 22.5031C150.868 21.5754 150.022 21.1115 148.801 21.1115C147.661 21.1115 146.62 21.7788 145.675 23.1135C144.731 24.4482 144.259 27.1988 144.259 31.3656V40.9848C144.259 41.9614 143.771 42.4497 142.794 42.4497H138.887C137.91 42.4497 137.422 41.9614 137.422 40.9848V29.2171C137.422 25.6689 137.178 23.4309 136.689 22.5031C136.217 21.5754 135.371 21.1115 134.15 21.1115C133.01 21.1115 131.969 21.7788 131.024 23.1135C130.08 24.4319 129.608 27.1826 129.608 31.3656V40.9848C129.608 41.9614 129.12 42.4497 128.143 42.4497H124.236Z" fill="white"/>
<path d="M166.968 42.4497C165.991 42.4497 165.503 41.9614 165.503 40.9848V18.2795C165.503 17.3029 165.991 16.8146 166.968 16.8146H170.875C171.852 16.8146 172.34 17.3029 172.34 18.2795V40.9848C172.34 41.9614 171.852 42.4497 170.875 42.4497H166.968ZM166.968 13.0548C165.991 13.0548 165.503 12.5665 165.503 11.5899V8.46486C165.503 7.48829 165.991 7 166.968 7H170.875C171.852 7 172.34 7.48829 172.34 8.46486V11.5899C172.34 12.5665 171.852 13.0548 170.875 13.0548H166.968Z" fill="white"/>
<path d="M178.127 21.6975C177.167 21.6975 176.687 21.2906 176.687 20.4767V18.0353C176.687 17.2215 177.167 16.8146 178.127 16.8146H179.788V15.9601C179.788 15.2277 179.959 14.5603 180.3 13.9581L182.181 10.6622C182.539 10.0437 182.962 9.73441 183.45 9.73441H185.16C186.136 9.73441 186.625 10.2227 186.625 11.1993V16.8146H190.581C191.541 16.8146 192.021 17.2215 192.021 18.0353V20.4767C192.021 21.2906 191.541 21.6975 190.581 21.6975H186.625V33.807C186.625 35.4672 186.739 36.6635 186.967 37.3959C187.211 38.1121 187.829 38.4702 188.822 38.4702C189.327 38.4702 189.897 38.3888 190.532 38.226C191.167 38.047 191.663 37.8761 192.021 37.7133C192.591 37.4529 192.965 37.6401 193.144 38.2748L193.877 41.0581C194.024 41.6115 193.812 42.0184 193.242 42.2788C192.705 42.523 191.964 42.7427 191.02 42.938C190.092 43.1496 189.156 43.2554 188.212 43.2554C185.884 43.2554 183.898 42.7752 182.254 41.8149C180.61 40.8546 179.788 38.8771 179.788 35.8822V21.6975H178.127Z" fill="white"/>
</svg>
