<svg xmlns="http://www.w3.org/2000/svg" width="194" height="50" fill="none"><path fill="#9B53F6" fill-opacity=".6" d="M33.902 16.098H0V50l33.902-33.902Z"/><path fill="#9B53F6" fill-opacity=".6" d="M0 0v50L33.902 0H0Z"/><path fill="#313854" d="M47.71 42.45c-1.14 0-1.71-.61-1.71-1.831V9.27c0-1.221.57-1.832 1.71-1.832h19.314c1.221 0 1.832.53 1.832 1.587v2.881c0 1.058-.611 1.587-1.832 1.587H53.13v8.496h11.892c1.22 0 1.831.53 1.831 1.587v2.881c0 1.058-.61 1.587-1.831 1.587H53.13V40.62c0 1.22-.57 1.83-1.71 1.83h-3.71ZM72.762 29.632c0-4.15 1.067-7.406 3.2-9.766 2.148-2.36 5.339-3.54 9.571-3.54 4.233 0 7.415 1.18 9.548 3.54 2.148 2.36 3.223 5.616 3.223 9.766s-1.075 7.406-3.223 9.766c-2.133 2.36-5.315 3.54-9.548 3.54-4.232 0-7.423-1.18-9.572-3.54-2.132-2.36-3.199-5.615-3.199-9.766Zm7.228 0c0 3.093.472 5.29 1.416 6.592.96 1.286 2.337 1.929 4.127 1.929 1.79 0 3.158-.643 4.102-1.929.96-1.302 1.441-3.5 1.441-6.592 0-3.092-.48-5.282-1.44-6.567-.945-1.302-2.312-1.954-4.103-1.954-1.79 0-3.166.652-4.127 1.954-.944 1.285-1.416 3.475-1.416 6.567ZM105.043 42.45c-.976 0-1.465-.489-1.465-1.465V18.279c0-.976.489-1.464 1.465-1.464h3.858c.977 0 1.466.488 1.466 1.464v2.002h.097c.423-1.041 1.132-1.96 2.125-2.758.993-.798 2.165-1.197 3.516-1.197.928 0 1.693.114 2.295.342.57.212.79.602.659 1.172l-.683 2.905c-.147.651-.586.847-1.319.586a3.726 3.726 0 0 0-1.221-.22c-1.563 0-2.857.936-3.882 2.808-1.026 1.872-1.539 4.598-1.539 8.179v8.887c0 .976-.488 1.465-1.465 1.465h-3.907ZM124.236 42.45c-.977 0-1.465-.489-1.465-1.465V18.279c0-.976.488-1.464 1.465-1.464h3.858c.977 0 1.465.488 1.465 1.464v1.416h.098c.472-1.041 1.27-1.863 2.393-2.465 1.123-.603 2.173-.904 3.15-.904 1.953 0 3.467.456 4.542 1.367 1.09.912 1.839 1.93 2.246 3.052h.098c1.416-1.839 2.694-3.035 3.834-3.589 1.155-.553 2.629-.83 4.419-.83 2.41 0 4.436.798 6.08 2.393 1.661 1.595 2.491 4.508 2.491 8.74v13.526c0 .976-.488 1.465-1.465 1.465h-3.907c-.977 0-1.465-.489-1.465-1.465V29.217c0-3.548-.244-5.786-.733-6.714-.472-.928-1.318-1.392-2.539-1.392-1.14 0-2.181.668-3.126 2.002-.944 1.335-1.416 4.086-1.416 8.253v9.619c0 .976-.488 1.465-1.465 1.465h-3.907c-.977 0-1.465-.489-1.465-1.465V29.217c0-3.548-.244-5.786-.733-6.714-.472-.928-1.318-1.392-2.539-1.392-1.14 0-2.181.668-3.126 2.002-.944 1.319-1.416 4.07-1.416 8.253v9.619c0 .976-.488 1.465-1.465 1.465h-3.907ZM166.968 42.45c-.977 0-1.465-.489-1.465-1.465V18.279c0-.976.488-1.464 1.465-1.464h3.907c.977 0 1.465.488 1.465 1.464v22.706c0 .976-.488 1.465-1.465 1.465h-3.907Zm0-29.395c-.977 0-1.465-.489-1.465-1.465V8.465c0-.977.488-1.465 1.465-1.465h3.907c.977 0 1.465.488 1.465 1.465v3.125c0 .976-.488 1.465-1.465 1.465h-3.907ZM178.127 21.698c-.96 0-1.44-.407-1.44-1.221v-2.442c0-.814.48-1.22 1.44-1.22h1.661v-.855c0-.732.171-1.4.512-2.002l1.881-3.296c.358-.618.781-.928 1.269-.928h1.71c.976 0 1.465.489 1.465 1.465v5.616h3.956c.96 0 1.44.406 1.44 1.22v2.442c0 .814-.48 1.22-1.44 1.22h-3.956v12.11c0 1.66.114 2.856.342 3.589.244.716.862 1.074 1.855 1.074.505 0 1.075-.081 1.71-.244.635-.179 1.131-.35 1.489-.513.57-.26.944-.073 1.123.562l.733 2.783c.147.553-.065.96-.635 1.22-.537.245-1.278.465-2.222.66-.928.212-1.864.317-2.808.317-2.328 0-4.314-.48-5.958-1.44-1.644-.96-2.466-2.938-2.466-5.933V21.698h-1.661Z"/></svg>